<svg id="Camada_4" data-name="Camada 4" xmlns="http://www.w3.org/2000/svg" viewBox="0 0 1920 1080"><defs><style>.cls-1{fill:#0a010707;}.cls-2{fill:none;stroke:transparent;}</style></defs><path class="cls-1" d="M1200.65,727.58a138.15,138.15,0,0,0,13.92-39.87l.27-1.28.2-1.3.4-2.6c.25-1.73.56-3.44.77-5.17l.55-5.22.27-2.59c.08-.87.11-1.75.17-2.62l.32-5.22c.12-1.73.09-3.49.15-5.22s.09-3.48.1-5.23l-.08-5.23c0-3.48-.24-7-.37-10.46s-.47-7-.7-10.45c-.63-7-1.35-13.94-2.27-20.92-1.78-13.92-4.07-28-6.08-42.34s-3.76-29-4.61-44a249,249,0,0,1,1.47-46.42l.38-3,.51-3,1.06-6c.36-2,.89-4,1.33-6s.88-4,1.47-6l1.76-5.94.9-3,1.07-2.94,2.19-5.89.55-1.48.62-1.43,1.28-2.87a184.34,184.34,0,0,1,26.39-42.54,209.49,209.49,0,0,1,39-29.86,233.36,233.36,0,0,1,43.58-20.27c1.86-.71,3.78-1.25,5.68-1.85l5.7-1.77c3.81-1,7.6-2,11.41-3l5.73-1.28c1.91-.41,3.81-.87,5.73-1.19l5.74-1.05c1-.17,1.91-.35,2.87-.5l2.88-.42a323,323,0,0,1,45.8-3.5,401,401,0,0,1,45,2.28c3.69.41,7.39.77,11.06,1.27s7.34.94,11,1.51l5.47.82,5.45.9c3.6.58,7.32,1.23,11,1.95,14.83,2.93,29.91,6.84,44.63,13.46a115.89,115.89,0,0,1,21.38,12.38A86.44,86.44,0,0,1,1592,369.56a75.56,75.56,0,0,1,6.75,11.17,72.85,72.85,0,0,1,4.77,12.09,80.27,80.27,0,0,1,3.2,25.15,103.05,103.05,0,0,1-3.67,23.91,139.73,139.73,0,0,1-8.1,21.78,200.12,200.12,0,0,1-23.75,38.15c-9,11.48-18.35,22.21-27,33.27s-16.75,22.36-23,34.58a118.18,118.18,0,0,0-7.54,19c-.45,1.64-.8,3.3-1.22,5-.19.83-.41,1.65-.58,2.49l-.39,2.52c-.24,1.69-.56,3.37-.74,5.07s-.3,3.42-.4,5.15c-.36,6.94-.14,14.08-.35,21.32s-.85,14.61-3.12,21.73a42.24,42.24,0,0,1-12,18.26,28.44,28.44,0,0,1-9.38,5.52,21.63,21.63,0,0,1-10.66.89,21.13,21.13,0,0,0,10.35-1.72,27.08,27.08,0,0,0,8.48-6,39.69,39.69,0,0,0,9.82-17.95c1.52-6.67,1.57-13.7,1.2-20.69s-1.19-14.11-1.41-21.44c-.05-1.84-.08-3.68,0-5.54s.24-3.71.35-5.57l.2-2.79c.11-.92.27-1.84.4-2.76.3-1.84.54-3.7.88-5.53a128.74,128.74,0,0,1,6.48-21.34,184.6,184.6,0,0,1,9.72-19.88c3.62-6.37,7.46-12.6,11.48-18.61,8-12.1,16.46-23.67,24.13-35.32a180.51,180.51,0,0,0,18.53-36c4.59-12.41,7.28-25.29,6.58-37.27a54.53,54.53,0,0,0-3.6-16.91,46.43,46.43,0,0,0-3.74-7.5,47.75,47.75,0,0,0-4.9-6.72,57.2,57.2,0,0,0-13-10.84,85.39,85.39,0,0,0-16.34-7.65c-11.72-4.15-24.69-6.49-38-8-3.34-.36-6.69-.67-10.17-.94l-5.16-.42-5.16-.33c-3.44-.25-6.87-.41-10.3-.56s-6.85-.23-10.27-.32a358.93,358.93,0,0,0-40.55,1.3,279,279,0,0,0-39.11,6.26l-2.39.55c-.79.19-1.57.42-2.35.63l-4.7,1.27c-1.58.39-3.11.91-4.65,1.38l-4.62,1.43c-3,1.05-6.06,2.13-9,3.22l-4.39,1.78c-1.46.61-2.94,1.14-4.35,1.83-23,10.22-43.84,24.95-59.39,43a131.21,131.21,0,0,0-23.56,26.58l-1.25,1.85c-.21.31-.43.61-.62.92l-.55,1-2.22,3.85-1.13,1.93-1,2-2,4.06c-.68,1.36-1.2,2.8-1.82,4.21s-1.23,2.81-1.75,4.27l-1.57,4.4-.79,2.21-.68,2.27a209.82,209.82,0,0,0-7.66,38.53c-1.48,13.47-2.13,27.38-2.5,41.51-.72,28.2-.33,57.73-4.74,86.75l-.84,5.43c-.3,1.81-.67,3.62-1,5.42s-.63,3.6-1.07,5.39l-1.23,5.37c-.21.89-.4,1.78-.63,2.67l-.73,2.66-1.46,5.29c-.52,1.75-1.14,3.49-1.7,5.23l-.85,2.6-.43,1.3-.5,1.28A141.87,141.87,0,0,1,1200.65,727.58Z"/><path class="cls-1" d="M312.52,593.7c28.93-27.07,63.74-49,101.16-65.41,9.36-4.1,18.86-8,28.5-11.47s19.38-6.75,29.2-9.77C491,501.11,511,496.1,531.11,492c40.84-1.31,81.07.6,120.8,3.65,19.78,1.58,39.49,3.3,59.07,5l29.36,2.53L755,504.33q7.34.6,14.64,1.09l14.63,1,14.62.8,7.31.4c2.44.12,4.87.19,7.3.28l14.63.53,14.6.23,7.32.1c2.44,0,4.86,0,7.3-.06l14.62-.17c4.87-.15,9.72-.39,14.6-.58l7.31-.31c2.43-.13,4.86-.36,7.29-.53L915.74,506c4.85-.51,9.69-1.1,14.55-1.65l7.29-.84c2.41-.35,4.82-.75,7.24-1.13l14.51-2.29,14.39-3,7.22-1.49,7.13-1.84,14.29-3.7-13.76,5.39-6.91,2.7-7,2.36-14.08,4.7-14.3,4.06c-2.39.67-4.77,1.38-7.17,2l-7.23,1.73c-4.83,1.14-9.66,2.33-14.51,3.44l-14.63,2.91c-2.44.47-4.88,1-7.33,1.42L888.06,522c-4.91.79-9.82,1.63-14.75,2.38l-14.8,2c-2.47.32-4.94.68-7.41,1l-7.42.78-14.85,1.56L814,530.93c-2.48.2-5,.43-7.44.61l-7.44.49-14.88,1-14.86.76c-5,.28-9.92.5-14.86.69l-14.85.61-29.61,1c-19.74.63-39.34,1.28-58.89,2.06-38.89,1.68-77.44,4.55-115,10.31-38.14-1.35-76.34.23-114.1,6.93L415,556.69c-2.37.43-4.69,1-7.05,1.47-4.72,1-9.36,2.15-14.05,3.27-9.3,2.46-18.64,5.08-27.78,8.31l-3.45,1.17c-1.15.4-2.27.85-3.41,1.27l-6.84,2.57-6.77,2.79-3.39,1.4-3.34,1.51-6.71,3-6.6,3.27-3.32,1.65L319,590.17Z"/><path class="cls-1" d="M365.37,547.32a158.38,158.38,0,0,0-2.36-20c-1.25-6.57-2.89-13-4.74-19.44-3.78-12.79-8.52-25.27-13.34-37.89-2.42-6.3-4.83-12.67-7.16-19.12s-4.54-13.13-6.49-19.88a189.55,189.55,0,0,1-7.54-42.61,125.78,125.78,0,0,1,.81-22.85,102.38,102.38,0,0,1,5.64-23.27l1.08-2.88c.19-.47.36-1,.56-1.43l.65-1.41,2.64-5.62c1-1.83,2-3.64,3.05-5.46s2.24-3.5,3.38-5.25a114.66,114.66,0,0,1,16.09-18.62c11.85-11.12,25.24-19.62,38.91-26.51,1.71-.89,3.43-1.69,5.16-2.5s3.45-1.6,5.19-2.37,3.46-1.5,5.18-2.2l5.18-2.12c6.94-2.66,14-5.2,21.07-7.35,7.28-1.38,14.57-2.35,21.84-3.24s14.5-1.44,21.69-1.8,14.35-.57,21.47-.66,14.17,0,21.18.3c28.07.9,55.35,3.69,82.15,6.33,13.4,1.33,26.7,2.65,39.9,3.72q9.91.81,19.76,1.41c6.56.39,13.09.7,19.73.91,26.5.9,53.9.76,81.69,3.31a298.63,298.63,0,0,1,41.77,6.59A185.22,185.22,0,0,1,850,289.82a158.38,158.38,0,0,1,18.64,11,151.59,151.59,0,0,1,16.78,13.67c1.31,1.23,2.54,2.54,3.81,3.8l1.88,1.92,1.79,2c1.19,1.35,2.41,2.65,3.55,4l3.35,4.17.83,1.05.79,1.08,1.57,2.16c1,1.45,2.1,2.87,3,4.38l2.89,4.47,2.67,4.61a139.25,139.25,0,0,1,9,19.16l1,2.46.83,2.51c.55,1.68,1.14,3.33,1.63,5l1.4,5.08.35,1.27.28,1.28.57,2.57c.83,3.41,1.27,6.9,1.86,10.34.35,3.49.85,6.94.95,10.43l.14,2.61.07,1.3v6.52c0,1.73-.16,3.47-.23,5.19l-.14,2.6-.27,2.58a137.55,137.55,0,0,1-30.8,74.6,134.1,134.1,0,0,0,23.73-75l0-2.46-.09-2.46c-.08-1.63-.09-3.27-.21-4.9l-.43-4.88-.11-1.22-.17-1.21-.35-2.42c-.37-3.23-1.13-6.4-1.72-9.58-.84-3.14-1.51-6.3-2.56-9.37l-.72-2.31-.36-1.16-.43-1.13L913.14,381c-.59-1.5-1.27-3-1.9-4.45l-1-2.21-1.08-2.16a125.33,125.33,0,0,0-9.67-16.61l-2.75-3.92-2.95-3.77c-1-1.28-2-2.47-3.05-3.67l-1.56-1.8-.78-.9-.83-.86-3.29-3.43c-1.11-1.13-2.3-2.18-3.44-3.28l-1.72-1.62-1.81-1.53c-1.21-1-2.38-2.06-3.62-3a131.54,131.54,0,0,0-15.52-10.53,139.07,139.07,0,0,0-17-8.07,163.22,163.22,0,0,0-36.51-9.46,273.05,273.05,0,0,0-38.44-2.62c-26-.11-52.53,2.32-79.88,3.81-6.83.39-13.77.67-20.67.86s-13.78.3-20.64.34c-13.71.1-27.31-.07-40.8-.21-27-.3-53.53-.63-79.33.82-6.46.33-12.85.85-19.21,1.41s-12.63,1.32-18.82,2.25-12.33,2-18.4,3.17-12,2.62-17.84,4.28c-6.06.71-12,1.75-18,2.88l-4.44,1c-1.49.32-3,.64-4.4,1s-2.89.69-4.3,1.09-2.85.76-4.24,1.19c-11.22,3.32-21.79,7.74-30.89,13.6a75,75,0,0,0-12.41,9.9l-2.68,2.84-2.49,3-2.28,3.19-.58.8c-.19.28-.34.57-.52.85l-1,1.71a68.82,68.82,0,0,0-6.69,15.1,96.53,96.53,0,0,0-3.71,17.24,165.31,165.31,0,0,0,.07,37.66c1.31,12.84,3.88,26,6.42,39.25s5.12,26.75,6.66,40.37c.73,6.82,1.23,13.66,1.31,20.49A158.26,158.26,0,0,1,365.37,547.32Z"/><path class="cls-1" d="M514,430a30.14,30.14,0,0,1-10.1-10.55,40.18,40.18,0,0,1-4.9-15.07,44.8,44.8,0,0,1,1.3-17,52.36,52.36,0,0,1,3.23-8.39,55.58,55.58,0,0,1,4.6-7.78A67.11,67.11,0,0,1,520.63,358a79.83,79.83,0,0,1,15.54-9.71c1.4-.63,2.81-1.31,4.26-1.87l2.18-.86,2.16-.77c2.87-1,5.78-1.88,8.71-2.64A129,129,0,0,1,571,339a149.59,149.59,0,0,1,15.86,4.17c2.48.8,4.93,1.63,7.3,2.5s4.82,1.78,7.38,2.82a108.5,108.5,0,0,1,16,7.88,73.75,73.75,0,0,1,8.27,5.86,58.41,58.41,0,0,1,7.71,7.63l.88,1.07.44.54.47.63c.62.84,1.22,1.69,1.81,2.54a49.15,49.15,0,0,1,3,5.26A46.18,46.18,0,0,1,643.82,391a45.45,45.45,0,0,1,.87,11.77A40.55,40.55,0,0,1,642,415.05a33.88,33.88,0,0,1-7.32,11.34,33.38,33.38,0,0,1-10.25,7.21,42.09,42.09,0,0,1-9.73,3,67.79,67.79,0,0,1-8.2,1c-2.47.16-4.72.26-7.14.35s-4.79.16-7.22.18a147.59,147.59,0,0,1-14.78-.56,92.72,92.72,0,0,1-15-2.55A67,67,0,0,1,548,429.58a47.93,47.93,0,0,1-12.4-9.32A47,47,0,0,1,527.07,408a37.42,37.42,0,0,1-3.72-14A27.49,27.49,0,0,1,526,380.33a25.73,25.73,0,0,0,.85,13,32,32,0,0,0,6.22,10.86,37.2,37.2,0,0,0,20.07,12.16c7.69,1.73,15.65,1.41,23.66,0,4-.7,8-1.66,12.11-2.79,2-.56,4.08-1.17,6.14-1.8s4.2-1.32,6.15-2a35.75,35.75,0,0,0,4.95-2.05,8.55,8.55,0,0,0,2.74-2c.47-.59.48-1.05.19-1.22s-.53-.15-.8-.37a3.32,3.32,0,0,1-.78-.95,14.58,14.58,0,0,0-1.15-1.54,6,6,0,0,0-1.52-1.34,4,4,0,0,0-.76-.37l-.34-.05-.07,0-.15-.07-.3-.13a30.07,30.07,0,0,0-6-2,81.08,81.08,0,0,0-9.23-1.48c-1.77-.2-3.68-.38-5.7-.54s-4-.3-5.88-.39a89.68,89.68,0,0,0-10.83.15,85.23,85.23,0,0,0-9.49-3.79c-1.56-.49-3.15-1-4.72-1.31l-1.18-.28-1.14-.23c-.77-.18-1.53-.25-2.32-.39a41.3,41.3,0,0,0-9.63-.1,35.81,35.81,0,0,0-9.45,2.37,29.4,29.4,0,0,0-4.39,2.26,29.9,29.9,0,0,0-4,3,26.66,26.66,0,0,0-6.16,8.77,29.46,29.46,0,0,0-2.41,11.64A26.43,26.43,0,0,0,514,430Z"/><path class="cls-1" d="M562.79,281.9c.15-2.14.25-4.23.32-6.26l.07-3-.15-3.06c-.12-2-.27-4-.45-5.86s-.62-3.89-1-5.75l-.53-2.74-.75-2.76q-.75-2.7-1.56-5.24c-.66-1.75-1.33-3.43-2-5.06l-1-2.4-1.22-2.38,2.74-3.31,2.47-3.56,1.26-1.84,1.1-1.92,2.26-3.94,1.95-4.15,1-2.13.81-2.18,1.66-4.48,1.3-4.62.66-2.38.47-2.39.94-4.91.54-5,.27-2.57.06-2.54.09-5.24-.35-5.25-.19-2.7-.41-2.64-.89-5.42,4,3.79,2.05,2,1.88,2.1,3.8,4.33,3.46,4.66,1.75,2.4,1.56,2.49,3.13,5.13,2.76,5.38,1.38,2.76,1.18,2.82,2.35,5.77,1.95,6,1,3,.76,3.09,1.49,6.29,1,6.43.5,3.28.29,3.29c.18,2.2.35,4.44.51,6.7s0,4.5,0,6.78l-2.56,2.67-2.74,2.54q-2.74,2.49-5.44,4.8c-1.93,1.51-3.84,2.95-5.74,4.34l-2.83,2-3,1.87q-3,1.83-5.87,3.48c-2.05,1-4.08,2-6.07,2.95l-3,1.34-3.09,1.15C566.76,280.59,564.76,281.27,562.79,281.9Z"/><path class="cls-1" d="M671.63,277.33a6.93,6.93,0,0,1-4.61,4.05,12.57,12.57,0,0,1-7,0,14.38,14.38,0,0,1-6.67-4,18.55,18.55,0,0,1-1.39-1.76c-.35-.54-.75-1.1-1-1.68a22.65,22.65,0,0,1-1.63-3.63c-1.72-5-1.84-9.94-2-14.11l-.09-3-.15-2.76c-.1-1.83-.24-3.64-.38-5.44a137.64,137.64,0,0,0-3.05-20.48,63.58,63.58,0,0,0-6.24-16.86,52.65,52.65,0,0,0,.77-14.24,44,44,0,0,0-4-14.22l-.41-.92-.48-.89-1-1.81c-.66-1.21-1.45-2.37-2.17-3.59s-1.63-2.36-2.51-3.52l-1.37-1.72a21.22,21.22,0,0,0-1.43-1.71,86.75,86.75,0,0,0-13.64-12.6c-1.27-1-2.61-1.85-3.93-2.8s-2.72-1.75-4.11-2.62c-2.85-1.67-5.78-3.31-8.83-4.8a169.45,169.45,0,0,0-19.19-8c-13.34-4.67-27.51-8.14-41.65-11.58,14.5-1.26,29-2.53,44-2.39a186.66,186.66,0,0,1,22.8,1.56c3.86.5,7.72,1.2,11.61,2,1.95.45,3.92.92,5.88,1.43s3.92,1.07,5.85,1.73A119.39,119.39,0,0,1,646.61,137c.95.51,1.87,1.07,2.78,1.65l2.75,1.74c1.83,1.2,3.6,2.51,5.41,3.79s3.52,2.74,5.23,4.24l2.54,2.28,1.27,1.16,1.22,1.23a91.83,91.83,0,0,1,17,23.23A103.49,103.49,0,0,1,694,204.15a116.06,116.06,0,0,1-8.23,26.12A173.94,173.94,0,0,1,674.17,252c-1,1.68-2.09,3.35-3.16,5l-1.59,2.43-1.51,2.17a44.75,44.75,0,0,0-4.5,7.16,9.39,9.39,0,0,0-.57,1.64c-.09.3-.11.56-.18.87s-.13.39-.16.63a5.09,5.09,0,0,0,1,3.33,7.41,7.41,0,0,0,3.33,2.65A5.16,5.16,0,0,0,671.63,277.33Z"/><path class="cls-1" d="M274.5,738.1c-4.54,14.15-9.05,28.39-11.46,42.46-.62,3.51-1.05,7-1.39,10.47s-.47,6.9-.44,10.23a79.86,79.86,0,0,0,2.49,19.26,55.65,55.65,0,0,0,6.92,16.17,44.45,44.45,0,0,0,4.92,6.16c.44.45.92.86,1.36,1.29l.67.64.73.59,1.44,1.18,1.53,1.1c8.23,5.73,19.05,9.34,31.82,12.31,2.83,1.56,5.8,3.1,8.92,4.65,1.54.77,3.15,1.54,4.77,2.3l4.85,2.3,9.71,4.61c3.24,1.53,6.53,2.94,9.8,4.42l9.83,4.39,9.93,4.18,10,4.17,10,3.95q40.23,15.78,82.15,27.82A929.62,929.62,0,0,0,645.33,955a943.09,943.09,0,0,1-177.85-4.43q-44.55-5.32-88.8-14.89l-11.06-2.4-11-2.65-11-2.67-11-2.91c-3.65-1-7.32-1.91-11-2.95l-10.91-3.16-5.46-1.58c-1.82-.53-3.64-1.06-5.51-1.65-3.72-1.15-7.54-2.39-11.44-3.78-3.54-2.16-7.16-4.55-10.73-7s-7.19-5.18-10.73-8.16a114.18,114.18,0,0,1-10.3-9.62c-1.66-1.7-3.24-3.58-4.8-5.43-.78-.92-1.51-1.94-2.26-2.9s-1.48-1.95-2.16-3l-2-3.09c-.65-1.06-1.27-2.14-1.89-3.21l-.91-1.61-.84-1.67c-.54-1.12-1.11-2.22-1.61-3.35a83.05,83.05,0,0,1-4.62-13.67,88.11,88.11,0,0,1-2.05-26.81c.11-2.16.4-4.28.65-6.39.14-1,.32-2.1.49-3.14s.35-2.07.57-3.1a107.31,107.31,0,0,1,3.12-12c1.26-3.92,2.71-7.64,4.28-11.29s3.29-7.16,5.13-10.57C257,762.19,265.76,750.12,274.5,738.1Z"/><path class="cls-1" d="M1304.54,131.4a161.67,161.67,0,0,1,43.27-4.56,236.8,236.8,0,0,1,43.75,5.47c28.86,6.19,56.61,16.35,83.65,26.48,54,20.23,108,41,161.6,64,12.56,7.35,25.08,14.76,37.49,22.4,3.12,1.88,6.21,3.81,9.3,5.73s6.18,3.82,9.3,5.8c6.21,3.92,12.43,7.89,18.63,12,12.4,8.26,24.73,17,36.65,26.66a292.19,292.19,0,0,1,34,31.92,199.75,199.75,0,0,1,27.6,39,180.94,180.94,0,0,1,16.8,44.87,212.73,212.73,0,0,1,5,46.5c.06,1.93,0,3.85-.09,5.78l-.18,5.76-.4,5.74c-.14,1.91-.23,3.82-.47,5.71-.44,3.8-.77,7.6-1.39,11.35l-.83,5.64-1,5.6c-1.34,7.46-3.15,14.81-5.08,22.09-1,3.61-2.06,7.21-3.19,10.78s-2.25,7.12-3.55,10.61a404.11,404.11,0,0,1-17.08,40.89c-12.72,26.47-27.5,51.4-42.47,76-7.52,12.33-15.32,24.65-24,36.4a211.45,211.45,0,0,1-29.37,32.64,137.93,137.93,0,0,1-36.81,23.61c-13.38,5.73-27.91,8.89-42.29,8.31a96.51,96.51,0,0,0,40.78-11.51,132.64,132.64,0,0,0,33.42-25.53A202.73,202.73,0,0,0,1723,694.1c7.44-12,14-24.53,20.43-37.29,12.83-25.6,25.29-51.28,35.34-77.53a382.88,382.88,0,0,0,12.9-39.77c.93-3.33,1.64-6.71,2.46-10s1.42-6.73,2.1-10.09c1.19-6.72,2.27-13.44,2.92-20.19l.5-5.06.33-5.06c.28-3.37.28-6.74.39-10.09.08-1.69,0-3.36,0-5l-.06-5-.26-5c-.1-1.66-.14-3.33-.34-5a178.82,178.82,0,0,0-7.38-38.52,143.33,143.33,0,0,0-16.21-34.35,158.94,158.94,0,0,0-24.59-29.2c-18.86-17.8-41.64-32.36-65.8-45.71-6-3.35-12.21-6.61-18.43-9.86-3.09-1.63-6.28-3.23-9.42-4.85s-6.29-3.23-9.46-4.8c-12.62-6.4-25.37-12.59-38.15-18.73-47.85-30.72-97.3-59.77-147.14-88.48-24.84-14.31-49.43-28.21-75.62-38.54a226.06,226.06,0,0,0-40.42-12A158.26,158.26,0,0,0,1304.54,131.4Z"/><path class="cls-1" d="M1062.45,413.45c6.46-43.73-3.6-87.77-25.23-122.38l-4.2-6.37c-1.42-2.1-3-4.09-4.48-6.12s-3.11-3.95-4.71-5.88l-2.39-2.87c-.8-1-1.69-1.9-2.53-2.85-6.9-7.61-14.58-15.16-22.46-23.42s-16-17.21-23.44-28.22a115.76,115.76,0,0,1-10.14-18.29,93.62,93.62,0,0,1-6.64-22,96.43,96.43,0,0,1,.06-11.9c.2-2,.36-4,.65-6s.58-4,1-5.89a88.94,88.94,0,0,1,7.77-22.06,102.61,102.61,0,0,1,12-18.45A125.79,125.79,0,0,1,992.15,96a169.72,169.72,0,0,1,31.56-21.55c5.43-2.94,10.92-5.57,16.46-8s11-4.56,16.63-6.61,11.38-3.9,17.31-5.52a175.21,175.21,0,0,1,18.28-4,133.78,133.78,0,0,1,19.26-1.62,108.17,108.17,0,0,1,19.88,1.71A95.72,95.72,0,0,1,1151,56.4a93.26,93.26,0,0,1,17.3,9.9,114.24,114.24,0,0,1,26.35,27,145.33,145.33,0,0,1,9.54,15.52l2.06,4,1.86,4.09c1.2,2.73,2.54,5.39,3.51,8.21s2.14,5.55,3.06,8.36l2.57,8.49c1.43,5.72,2.83,11.43,3.68,17.24A173.93,173.93,0,0,1,1223,194a176.26,176.26,0,0,1-5,34.16l-1.09,4.16c-.39,1.38-.69,2.77-1.18,4.13l-2.7,8.14c-1,2.67-2.12,5.3-3.18,8l-.8,2-.93,1.93-1.85,3.85c-.63,1.27-1.2,2.57-1.88,3.82l-2.09,3.71c-1.4,2.47-2.76,5-4.29,7.31-3,4.72-6,9.23-8.82,13.83a74,74,0,0,0-6.93,14.2,38.67,38.67,0,0,0-1.87,7.54,30.43,30.43,0,0,0-.31,3.83,31.57,31.57,0,0,0,.24,3.88,34.21,34.21,0,0,0,.66,3.86,33.3,33.3,0,0,0,1.19,3.75,32.51,32.51,0,0,0,1.62,3.62A28.58,28.58,0,0,0,1186,333a20.59,20.59,0,0,0,5.83,5.4,19.2,19.2,0,0,0,7.65,2.59,19.46,19.46,0,0,1-8.07-1.81,21.91,21.91,0,0,1-6.76-5,29.54,29.54,0,0,1-2.7-3.31,35,35,0,0,1-2.16-3.7,36.29,36.29,0,0,1-1.73-3.93,39.31,39.31,0,0,1-1.18-4.15,38.44,38.44,0,0,1-.74-4.29,35.82,35.82,0,0,1-.12-4.4,44.18,44.18,0,0,1,1.17-8.61,80.17,80.17,0,0,1,5.79-16.08c2.37-5.11,5-10,7.36-14.84,1.21-2.41,2.22-4.87,3.28-7.31l1.57-3.65c.5-1.23.91-2.5,1.36-3.74l1.33-3.75.67-1.86.54-1.91c.71-2.56,1.46-5.08,2.13-7.63l1.67-7.73c.32-1.27.45-2.59.66-3.89l.6-3.9a161.32,161.32,0,0,0,1.15-31.27,155,155,0,0,0-5.2-30.5c-1.28-5-3-9.77-4.79-14.55l-3-7c-1-2.31-2.26-4.53-3.37-6.79s-2.45-4.4-3.69-6.57l-1.91-3.24-2-3.11a118.31,118.31,0,0,0-9-11.64A83.92,83.92,0,0,0,1150.81,93a59.47,59.47,0,0,0-11.89-5.16,60.93,60.93,0,0,0-12.39-2.27,72.39,72.39,0,0,0-13,.36,96.69,96.69,0,0,0-13.35,2.66,136.32,136.32,0,0,0-13.5,4.53c-4.51,1.77-9,3.82-13.52,6s-9.08,4.61-13.32,7-8.45,5-12.42,7.8a121.88,121.88,0,0,0-21,17.89,74.63,74.63,0,0,0-7.56,9.76,49.48,49.48,0,0,0-4.83,9.74,34.41,34.41,0,0,0-2,9.27c-.1.75-.05,1.51-.1,2.26s.06,1.51.06,2.25a38.2,38.2,0,0,0,.6,4.53c-.65,6.12.61,13.53,3.82,21.78s8.06,17,13.6,26.12,11.75,18.57,17.64,28.8c.73,1.3,1.48,2.56,2.18,3.9l2.1,4c1.38,2.68,2.82,5.32,4,8.09s2.52,5.44,3.62,8.21l3.2,8.33C1078.77,323.64,1078.08,372.12,1062.45,413.45Z"/><path class="cls-1" d="M1095.17,140.22q10.07,26.44,22,51.2-4.62,11.39-8.87,23-2.13,5.82-4.15,11.72l-2,5.9-.5,1.46-.47,1.26-.86,2.19a17.89,17.89,0,0,1-1.37,2.94,2.74,2.74,0,0,1-.66.72l-.35.28-.16.15-.08.08-.32.32h0l-.07.1a1.27,1.27,0,0,0-.15.44,1.64,1.64,0,0,0,.35,1,5.28,5.28,0,0,0,2.86,1.74,11,11,0,0,0,4.28.26,18.11,18.11,0,0,0,5-1.71,56.79,56.79,0,0,0,10.08-7,60.55,60.55,0,0,1-5.12,12.11,27.85,27.85,0,0,1-4.59,5.8,23.74,23.74,0,0,1-7.13,4.52,22.06,22.06,0,0,1-9.3,1.6,20.14,20.14,0,0,1-5.4-1,20.51,20.51,0,0,1-5.39-2.79,24.9,24.9,0,0,1-7.55-9.1,44.62,44.62,0,0,1-3.3-9.11l-3.26-13.65q-1.5-6.34-2.9-12.74-2.79-12.79-5.13-25.79Q1077.22,162.13,1095.17,140.22Z"/><path class="cls-1" d="M1143.48,150.21c.83,1.94,1.67,3.86,2.51,5.74l1.26,2.8,1.38,2.77q1.38,2.74,2.78,5.4c1,1.77,2,3.52,3,5.23l1.51,2.54,1.61,2.51c1.08,1.65,2.15,3.27,3.23,4.86s2.29,3.16,3.43,4.69l1.71,2.27,1.81,2.23-1.71,4.49-1.52,4.59-.76,2.33-.67,2.35-1.33,4.76-1.12,4.83-.57,2.46-.46,2.46-.92,5-.71,5.05-.35,2.56-.24,2.56-.48,5.18-.26,5.22-.12,2.65v8l.22,5.35.12,2.71.24,2.7.49,5.45-3.74-4-1.88-2.05-1.8-2.12-3.61-4.3-3.44-4.46-1.73-2.27-1.64-2.32-3.29-4.72-3.1-4.87-1.56-2.47-1.46-2.51-2.93-5.11-2.72-5.23-1.37-2.66-1.26-2.69-2.53-5.46-2.31-5.58-1.16-2.83-1-2.85-2.08-5.79-1.87-5.89,1.74-3,1.84-2.92q1.85-2.91,3.69-5.7c1.3-1.87,2.61-3.7,3.91-5.5l2-2.68,2.06-2.63q2.05-2.59,4.11-5.1c1.44-1.66,2.88-3.28,4.31-4.88l2.14-2.37,2.25-2.3Q1141.26,152.38,1143.48,150.21Z"/><path class="cls-1" d="M1364.26,425.68a267.81,267.81,0,0,0-16.91,110.25,270.85,270.85,0,0,0-15,105.16l1.12,13.68,1.94,13.66c1.4,9.09,3.76,18.73,4.87,28.88a88.46,88.46,0,0,1,.45,15.46,55.2,55.2,0,0,1-3.15,15.26,43.9,43.9,0,0,1-7.54,13.24,31,31,0,0,1-11.76,8.75,29,29,0,0,0,8.8-10.71,38.34,38.34,0,0,0,3.61-12.93,46.29,46.29,0,0,0-.58-13.11,75.46,75.46,0,0,0-3.65-12.79c-1.57-4.22-3.43-8.4-5.4-12.68s-4.09-8.62-6-13.23l-5.67-13.9-4.87-14.27a313.6,313.6,0,0,1-12.62-122.07C1309.76,485.39,1334.8,451.64,1364.26,425.68Z"/><polygon class="cls-1" points="1427.06 440.76 1425.01 452.71 1424.02 458.6 1423.31 464.57 1421.95 476.34 1421.17 488.12 1420.81 493.92 1420.71 499.77 1420.56 511.31 1420.97 522.81 1421.19 528.47 1421.67 534.15 1417.46 544.24 1413.72 554.55 1411.84 559.74 1410.2 565.01 1406.9 575.61 1404.1 586.38 1402.69 591.8 1401.53 597.27 1399.21 608.28 1397.39 619.42 1396.48 625.03 1395.84 630.66 1394.54 642 1393.77 653.42 1393.39 659.16 1393.28 664.91 1393.07 676.48 1393.41 688.08 1393.59 693.91 1394.04 699.72 1394.97 711.42 1390.58 700.5 1388.38 695 1386.45 689.42 1382.57 678.16 1379.22 666.71 1377.55 660.94 1376.14 655.12 1373.32 643.39 1371.05 631.51 1369.91 625.54 1369.05 619.53 1367.33 607.43 1366.16 595.24 1365.58 589.1 1365.27 582.96 1364.68 570.6 1364.64 558.2 1364.64 551.95 1364.9 545.73 1365.47 533.21 1366.6 520.68 1369.76 515.06 1373.17 509.55 1379.95 498.7 1387.21 488.22 1390.82 483.06 1394.67 478.04 1402.32 468.16 1410.41 458.7 1414.42 454.05 1418.66 449.57 1427.06 440.76"/><path class="cls-1" d="M1227.42,898a373.57,373.57,0,0,1-73,4.34,481.7,481.7,0,0,1-73.61-8.47,707.18,707.18,0,0,1-72.21-18c-23.76-7.18-47.18-15.4-70.17-24.05-42.93-23.64-84-48.67-125.78-71.5-20.86-11.42-41.88-22.31-63.27-32.24s-43.29-18.78-65.59-26.77a786.88,786.88,0,0,0-281.62-44.76,801.25,801.25,0,0,1,289.76,17.61q35.72,9,70.71,21.06c23.26,8.13,46.08,17.26,68.56,26.84,45,19.17,88.54,40.14,132.14,58.84,20.25,12.56,40.58,24.55,61.39,35.63a674.32,674.32,0,0,0,64,30.11,460.22,460.22,0,0,0,67.56,21.64A366.61,366.61,0,0,0,1227.42,898Z"/><path class="cls-1" d="M419.31,82.91c-20.64,7.27-41.3,14.53-61.46,22.57s-39.85,16.8-58.36,27c-9.25,5.08-18.27,10.5-26.81,16.26a280.78,280.78,0,0,0-24.38,18.62,208.36,208.36,0,0,0-39.11,43.7,157.85,157.85,0,0,0-17.66,21.68A153.92,153.92,0,0,0,178,257.26c-7.75,17.41-12.65,36.94-16,57.27s-5.1,41.59-6.59,63.23-2.79,43.23-3.84,64.9c-4.17,86.67-4.68,173.79-3.5,260.94-10.6-86.51-19.56-173.35-24.85-260.76-1.31-21.85-2.44-43.73-3.24-65.65s-1.5-44.21-.27-67.13a339.64,339.64,0,0,1,3.57-34.76,239.27,239.27,0,0,1,8.17-35.2,206,206,0,0,1,14.35-34.38A213.34,213.34,0,0,1,166,174.35a259.06,259.06,0,0,1,58.59-42.27,318.25,318.25,0,0,1,31.7-14.74c10.77-4.26,21.57-7.88,32.44-11.07,21.72-6.41,43.58-10.84,65.35-14.45S397.59,85.58,419.31,82.91Z"/><path class="cls-2" d="M1200.64,727.58c26.29-39.78,26.54-90.88,23.56-138.47s-7.94-97.24,10.22-141.34c19.42-47.19,63.73-81.18,112.25-97s101-15.36,151.58-8.64c33.63,4.47,70.91,14.39,87.69,43.87,19.93,35,.89,79.25-22.81,111.84s-53.46,64.76-56.21,105c-1,15.3,2,30.88-1.15,45.88s-15.85,30-31,28"/><path class="cls-2" d="M1200.65,727.58a138.15,138.15,0,0,0,13.92-39.87l.27-1.28.2-1.3.4-2.6c.25-1.73.56-3.44.77-5.17l.55-5.22.27-2.59c.08-.87.11-1.75.17-2.62l.32-5.22c.12-1.73.09-3.49.15-5.22s.09-3.48.1-5.23l-.08-5.23c0-3.48-.24-7-.37-10.46s-.47-7-.7-10.45c-.63-7-1.35-13.94-2.27-20.92-1.78-13.92-4.07-28-6.08-42.34s-3.76-29-4.61-44a249,249,0,0,1,1.47-46.42l.38-3,.51-3,1.06-6c.36-2,.89-4,1.33-6s.88-4,1.47-6l1.76-5.94.9-3,1.07-2.94,2.19-5.89.55-1.48.62-1.43,1.28-2.87a184.34,184.34,0,0,1,26.39-42.54,209.49,209.49,0,0,1,39-29.86,233.36,233.36,0,0,1,43.58-20.27c1.86-.71,3.78-1.25,5.68-1.85l5.7-1.77c3.81-1,7.6-2,11.41-3l5.73-1.28c1.91-.41,3.81-.87,5.73-1.19l5.74-1.05c1-.17,1.91-.35,2.87-.5l2.88-.42a323,323,0,0,1,45.8-3.5,401,401,0,0,1,45,2.28c3.69.41,7.39.77,11.06,1.27s7.34.94,11,1.51l5.47.82,5.45.9c3.6.58,7.32,1.23,11,1.95,14.83,2.93,29.91,6.84,44.63,13.46a115.89,115.89,0,0,1,21.38,12.38A86.44,86.44,0,0,1,1592,369.56a75.56,75.56,0,0,1,6.75,11.17,72.85,72.85,0,0,1,4.77,12.09,80.27,80.27,0,0,1,3.2,25.15,103.05,103.05,0,0,1-3.67,23.91,139.73,139.73,0,0,1-8.1,21.78,200.12,200.12,0,0,1-23.75,38.15c-9,11.48-18.35,22.21-27,33.27s-16.75,22.36-23,34.58a118.18,118.18,0,0,0-7.54,19c-.45,1.64-.8,3.3-1.22,5-.19.83-.41,1.65-.58,2.49l-.39,2.52c-.24,1.69-.56,3.37-.74,5.07s-.3,3.42-.4,5.15c-.36,6.94-.14,14.08-.35,21.32s-.85,14.61-3.12,21.73a42.24,42.24,0,0,1-12,18.26,28.44,28.44,0,0,1-9.38,5.52,21.63,21.63,0,0,1-10.66.89,21.13,21.13,0,0,0,10.35-1.72,27.08,27.08,0,0,0,8.48-6,39.69,39.69,0,0,0,9.82-17.95c1.52-6.67,1.57-13.7,1.2-20.69s-1.19-14.11-1.41-21.44c-.05-1.84-.08-3.68,0-5.54s.24-3.71.35-5.57l.2-2.79c.11-.92.27-1.84.4-2.76.3-1.84.54-3.7.88-5.53a128.74,128.74,0,0,1,6.48-21.34,184.6,184.6,0,0,1,9.72-19.88c3.62-6.37,7.46-12.6,11.48-18.61,8-12.1,16.46-23.67,24.13-35.32a180.51,180.51,0,0,0,18.53-36c4.59-12.41,7.28-25.29,6.58-37.27a54.53,54.53,0,0,0-3.6-16.91,46.43,46.43,0,0,0-3.74-7.5,47.75,47.75,0,0,0-4.9-6.72,57.2,57.2,0,0,0-13-10.84,85.39,85.39,0,0,0-16.34-7.65c-11.72-4.15-24.69-6.49-38-8-3.34-.36-6.69-.67-10.17-.94l-5.16-.42-5.16-.33c-3.44-.25-6.87-.41-10.3-.56s-6.85-.23-10.27-.32a358.93,358.93,0,0,0-40.55,1.3,279,279,0,0,0-39.11,6.26l-2.39.55c-.79.19-1.57.42-2.35.63l-4.7,1.27c-1.58.39-3.11.91-4.65,1.38l-4.62,1.43c-3,1.05-6.06,2.13-9,3.22l-4.39,1.78c-1.46.61-2.94,1.14-4.35,1.83-23,10.22-43.84,24.95-59.39,43a131.21,131.21,0,0,0-23.56,26.58l-1.25,1.85c-.21.31-.43.61-.62.92l-.55,1-2.22,3.85-1.13,1.93-1,2-2,4.06c-.68,1.36-1.2,2.8-1.82,4.21s-1.23,2.81-1.75,4.27l-1.57,4.4-.79,2.21-.68,2.27a209.82,209.82,0,0,0-7.66,38.53c-1.48,13.47-2.13,27.38-2.5,41.51-.72,28.2-.33,57.73-4.74,86.75l-.84,5.43c-.3,1.81-.67,3.62-1,5.42s-.63,3.6-1.07,5.39l-1.23,5.37c-.21.89-.4,1.78-.63,2.67l-.73,2.66-1.46,5.29c-.52,1.75-1.14,3.49-1.7,5.23l-.85,2.6-.43,1.3-.5,1.28A141.87,141.87,0,0,1,1200.65,727.58Z"/><path class="cls-2" d="M312.51,593.7c95.11-69.87,221-79,339-76.83s239.6,12.51,350.88-26.77"/><path class="cls-2" d="M312.52,593.7c28.93-27.07,63.74-49,101.16-65.41,9.36-4.1,18.86-8,28.5-11.47s19.38-6.75,29.2-9.77C491,501.11,511,496.1,531.11,492c40.84-1.31,81.07.6,120.8,3.65,19.78,1.58,39.49,3.3,59.07,5l29.36,2.53L755,504.33q7.34.6,14.64,1.09l14.63,1,14.62.8,7.31.4c2.44.12,4.87.19,7.3.28l14.63.53,14.6.23,7.32.1c2.44,0,4.86,0,7.3-.06l14.62-.17c4.87-.15,9.72-.39,14.6-.58l7.31-.31c2.43-.13,4.86-.36,7.29-.53L915.74,506c4.85-.51,9.69-1.1,14.55-1.65l7.29-.84c2.41-.35,4.82-.75,7.24-1.13l14.51-2.29,14.39-3,7.22-1.49,7.13-1.84,14.29-3.7-13.76,5.39-6.91,2.7-7,2.36-14.08,4.7-14.3,4.06c-2.39.67-4.77,1.38-7.17,2l-7.23,1.73c-4.83,1.14-9.66,2.33-14.51,3.44l-14.63,2.91c-2.44.47-4.88,1-7.33,1.42L888.06,522c-4.91.79-9.82,1.63-14.75,2.38l-14.8,2c-2.47.32-4.94.68-7.41,1l-7.42.78-14.85,1.56L814,530.93c-2.48.2-5,.43-7.44.61l-7.44.49-14.88,1-14.86.76c-5,.28-9.92.5-14.86.69l-14.85.61-29.61,1c-19.74.63-39.34,1.28-58.89,2.06-38.89,1.68-77.44,4.55-115,10.31-38.14-1.35-76.34.23-114.1,6.93L415,556.69c-2.37.43-4.69,1-7.05,1.47-4.72,1-9.36,2.15-14.05,3.27-9.3,2.46-18.64,5.08-27.78,8.31l-3.45,1.17c-1.15.4-2.27.85-3.41,1.27l-6.84,2.57-6.77,2.79-3.39,1.4-3.34,1.51-6.71,3-6.6,3.27-3.32,1.65L319,590.17Z"/><path class="cls-2" d="M365.37,547.32C366.92,512,353.74,477.89,345,443.58s-12.46-72.94,6.05-103.11c14.45-23.55,40.23-37.9,66.4-46.75,82.37-27.88,172.16-10.43,259.11-10.44,63.85,0,132.91-8.38,186.86,25.76A134,134,0,0,1,898.2,503.66"/><path class="cls-2" d="M365.37,547.32a158.38,158.38,0,0,0-2.36-20c-1.25-6.57-2.89-13-4.74-19.44-3.78-12.79-8.52-25.27-13.34-37.89-2.42-6.3-4.83-12.67-7.16-19.12s-4.54-13.13-6.49-19.88a189.55,189.55,0,0,1-7.54-42.61,125.78,125.78,0,0,1,.81-22.85,102.38,102.38,0,0,1,5.64-23.27l1.08-2.88c.19-.47.36-1,.56-1.43l.65-1.41,2.64-5.62c1-1.83,2-3.64,3.05-5.46s2.24-3.5,3.38-5.25a114.66,114.66,0,0,1,16.09-18.62c11.85-11.12,25.24-19.62,38.91-26.51,1.71-.89,3.43-1.69,5.16-2.5s3.45-1.6,5.19-2.37,3.46-1.5,5.18-2.2l5.18-2.12c6.94-2.66,14-5.2,21.07-7.35,7.28-1.38,14.57-2.35,21.84-3.24s14.5-1.44,21.69-1.8,14.35-.57,21.47-.66,14.17,0,21.18.3c28.07.9,55.35,3.69,82.15,6.33,13.4,1.33,26.7,2.65,39.9,3.72q9.91.81,19.76,1.41c6.56.39,13.09.7,19.73.91,26.5.9,53.9.76,81.69,3.31a298.63,298.63,0,0,1,41.77,6.59A185.22,185.22,0,0,1,850,289.82a158.38,158.38,0,0,1,18.64,11,151.59,151.59,0,0,1,16.78,13.67c1.31,1.23,2.54,2.54,3.81,3.8l1.88,1.92,1.79,2c1.19,1.35,2.41,2.65,3.55,4l3.35,4.17.83,1.05.79,1.08,1.57,2.16c1,1.45,2.1,2.87,3,4.38l2.89,4.47,2.67,4.61a139.25,139.25,0,0,1,9,19.16l1,2.46.83,2.51c.55,1.68,1.14,3.33,1.63,5l1.4,5.08.35,1.27.28,1.28.57,2.57c.83,3.41,1.27,6.9,1.86,10.34.35,3.49.85,6.94.95,10.43l.14,2.61.07,1.3v6.52c0,1.73-.16,3.47-.23,5.19l-.14,2.6-.27,2.58a137.55,137.55,0,0,1-30.8,74.6,134.1,134.1,0,0,0,23.73-75l0-2.46-.09-2.46c-.08-1.63-.09-3.27-.21-4.9l-.43-4.88-.11-1.22-.17-1.21-.35-2.42c-.37-3.23-1.13-6.4-1.72-9.58-.84-3.14-1.51-6.3-2.56-9.37l-.72-2.31-.36-1.16-.43-1.13L913.14,381c-.59-1.5-1.27-3-1.9-4.45l-1-2.21-1.08-2.16a125.33,125.33,0,0,0-9.67-16.61l-2.75-3.92-2.95-3.77c-1-1.28-2-2.47-3.05-3.67l-1.56-1.8-.78-.9-.83-.86-3.29-3.43c-1.11-1.13-2.3-2.18-3.44-3.28l-1.72-1.62-1.81-1.53c-1.21-1-2.38-2.06-3.62-3a131.54,131.54,0,0,0-15.52-10.53,139.07,139.07,0,0,0-17-8.07,163.22,163.22,0,0,0-36.51-9.46,273.05,273.05,0,0,0-38.44-2.62c-26-.11-52.53,2.32-79.88,3.81-6.83.39-13.77.67-20.67.86s-13.78.3-20.64.34c-13.71.1-27.31-.07-40.8-.21-27-.3-53.53-.63-79.33.82-6.46.33-12.85.85-19.21,1.41s-12.63,1.32-18.82,2.25-12.33,2-18.4,3.17-12,2.62-17.84,4.28c-6.06.71-12,1.75-18,2.88l-4.44,1c-1.49.32-3,.64-4.4,1s-2.89.69-4.3,1.09-2.85.76-4.24,1.19c-11.22,3.32-21.79,7.74-30.89,13.6a75,75,0,0,0-12.41,9.9l-2.68,2.84-2.49,3-2.28,3.19-.58.8c-.19.28-.34.57-.52.85l-1,1.71a68.82,68.82,0,0,0-6.69,15.1,96.53,96.53,0,0,0-3.71,17.24,165.31,165.31,0,0,0,.07,37.66c1.31,12.84,3.88,26,6.42,39.25s5.12,26.75,6.66,40.37c.73,6.82,1.23,13.66,1.31,20.49A158.26,158.26,0,0,1,365.37,547.32Z"/><path class="cls-2" d="M514,430c-10.06-10.32-10.46-27.74-3-40.06s21.37-19.78,35.59-22.14,28.81-.2,42.82,3.2c10.94,2.65,22.25,6.39,29.83,14.71s9.79,22.51,1.94,30.59c-4.79,4.93-12,6.52-18.75,7.75-17.54,3.18-36.22,5.4-52.72-1.35S520.3,397.22,526,380.32"/><path class="cls-2" d="M514,430a30.14,30.14,0,0,1-10.1-10.55,40.18,40.18,0,0,1-4.9-15.07,44.8,44.8,0,0,1,1.3-17,52.36,52.36,0,0,1,3.23-8.39,55.58,55.58,0,0,1,4.6-7.78A67.11,67.11,0,0,1,520.63,358a79.83,79.83,0,0,1,15.54-9.71c1.4-.63,2.81-1.31,4.26-1.87l2.18-.86,2.16-.77c2.87-1,5.78-1.88,8.71-2.64A129,129,0,0,1,571,339a149.59,149.59,0,0,1,15.86,4.17c2.48.8,4.93,1.63,7.3,2.5s4.82,1.78,7.38,2.82a108.5,108.5,0,0,1,16,7.88,73.75,73.75,0,0,1,8.27,5.86,58.41,58.41,0,0,1,7.71,7.63l.88,1.07.44.54.47.63c.62.84,1.22,1.69,1.81,2.54a49.15,49.15,0,0,1,3,5.26A46.18,46.18,0,0,1,643.82,391a45.45,45.45,0,0,1,.87,11.77A40.55,40.55,0,0,1,642,415.05a33.88,33.88,0,0,1-7.32,11.34,33.38,33.38,0,0,1-10.25,7.21,42.09,42.09,0,0,1-9.73,3,67.79,67.79,0,0,1-8.2,1c-2.47.16-4.72.26-7.14.35s-4.79.16-7.22.18a147.59,147.59,0,0,1-14.78-.56,92.72,92.72,0,0,1-15-2.55A67,67,0,0,1,548,429.58a47.93,47.93,0,0,1-12.4-9.32A47,47,0,0,1,527.07,408a37.42,37.42,0,0,1-3.72-14A27.49,27.49,0,0,1,526,380.33a25.73,25.73,0,0,0,.85,13,32,32,0,0,0,6.22,10.86,37.2,37.2,0,0,0,20.07,12.16c7.69,1.73,15.65,1.41,23.66,0,4-.7,8-1.66,12.11-2.79,2-.56,4.08-1.17,6.14-1.8s4.2-1.32,6.15-2a35.75,35.75,0,0,0,4.95-2.05,8.55,8.55,0,0,0,2.74-2c.47-.59.48-1.05.19-1.22s-.53-.15-.8-.37a3.32,3.32,0,0,1-.78-.95,14.58,14.58,0,0,0-1.15-1.54,6,6,0,0,0-1.52-1.34,4,4,0,0,0-.76-.37l-.34-.05-.07,0-.15-.07-.3-.13a30.07,30.07,0,0,0-6-2,81.08,81.08,0,0,0-9.23-1.48c-1.77-.2-3.68-.38-5.7-.54s-4-.3-5.88-.39a89.68,89.68,0,0,0-10.83.15,85.23,85.23,0,0,0-9.49-3.79c-1.56-.49-3.15-1-4.72-1.31l-1.18-.28-1.14-.23c-.77-.18-1.53-.25-2.32-.39a41.3,41.3,0,0,0-9.63-.1,35.81,35.81,0,0,0-9.45,2.37,29.4,29.4,0,0,0-4.39,2.26,29.9,29.9,0,0,0-4,3,26.66,26.66,0,0,0-6.16,8.77,29.46,29.46,0,0,0-2.41,11.64A26.43,26.43,0,0,0,514,430Z"/><path class="cls-2" d="M562.79,281.9c26.78-32.26,30.74-81.56,9.46-117.68"/><path class="cls-2" d="M562.79,281.9c.15-2.14.25-4.23.32-6.26l.07-3-.15-3.06c-.12-2-.27-4-.45-5.86s-.62-3.89-1-5.75l-.53-2.74-.75-2.76q-.75-2.7-1.56-5.24c-.66-1.75-1.33-3.43-2-5.06l-1-2.4-1.22-2.38,2.74-3.31,2.47-3.56,1.26-1.84,1.1-1.92,2.26-3.94,1.95-4.15,1-2.13.81-2.18,1.66-4.48,1.3-4.62.66-2.38.47-2.39.94-4.91.54-5,.27-2.57.06-2.54.09-5.24-.35-5.25-.19-2.7-.41-2.64-.89-5.42,4,3.79,2.05,2,1.88,2.1,3.8,4.33,3.46,4.66,1.75,2.4,1.56,2.49,3.13,5.13,2.76,5.38,1.38,2.76,1.18,2.82,2.35,5.77,1.95,6,1,3,.76,3.09,1.49,6.29,1,6.43.5,3.28.29,3.29c.18,2.2.35,4.44.51,6.7s0,4.5,0,6.78l-2.56,2.67-2.74,2.54q-2.74,2.49-5.44,4.8c-1.93,1.51-3.84,2.95-5.74,4.34l-2.83,2-3,1.87q-3,1.83-5.87,3.48c-2.05,1-4.08,2-6.07,2.95l-3,1.34-3.09,1.15C566.76,280.59,564.76,281.27,562.79,281.9Z"/><path class="cls-2" d="M671.63,277.33c-3.68,4.68-12,1.65-14.27-3.85s-.58-11.74,1-17.47c6.55-23.1,11.36-48.15,3.26-70.76-8.5-23.75-30.25-40.84-53.83-49.81s-49.14-11-74.3-12.86"/><path class="cls-2" d="M671.63,277.33a6.93,6.93,0,0,1-4.61,4.05,12.57,12.57,0,0,1-7,0,14.38,14.38,0,0,1-6.67-4,18.55,18.55,0,0,1-1.39-1.76c-.35-.54-.75-1.1-1-1.68a22.65,22.65,0,0,1-1.63-3.63c-1.72-5-1.84-9.94-2-14.11l-.09-3-.15-2.76c-.1-1.83-.24-3.64-.38-5.44a137.64,137.64,0,0,0-3.05-20.48,63.58,63.58,0,0,0-6.24-16.86,52.65,52.65,0,0,0,.77-14.24,44,44,0,0,0-4-14.22l-.41-.92-.48-.89-1-1.81c-.66-1.21-1.45-2.37-2.17-3.59s-1.63-2.36-2.51-3.52l-1.37-1.72a21.22,21.22,0,0,0-1.43-1.71,86.75,86.75,0,0,0-13.64-12.6c-1.27-1-2.61-1.85-3.93-2.8s-2.72-1.75-4.11-2.62c-2.85-1.67-5.78-3.31-8.83-4.8a169.45,169.45,0,0,0-19.19-8c-13.34-4.67-27.51-8.14-41.65-11.58,14.5-1.26,29-2.53,44-2.39a186.66,186.66,0,0,1,22.8,1.56c3.86.5,7.72,1.2,11.61,2,1.95.45,3.92.92,5.88,1.43s3.92,1.07,5.85,1.73A119.39,119.39,0,0,1,646.61,137c.95.51,1.87,1.07,2.78,1.65l2.75,1.74c1.83,1.2,3.6,2.51,5.41,3.79s3.52,2.74,5.23,4.24l2.54,2.28,1.27,1.16,1.22,1.23a91.83,91.83,0,0,1,17,23.23A103.49,103.49,0,0,1,694,204.15a116.06,116.06,0,0,1-8.23,26.12A173.94,173.94,0,0,1,674.17,252c-1,1.68-2.09,3.35-3.16,5l-1.59,2.43-1.51,2.17a44.75,44.75,0,0,0-4.5,7.16,9.39,9.39,0,0,0-.57,1.64c-.09.3-.11.56-.18.87s-.13.39-.16.63a5.09,5.09,0,0,0,1,3.33,7.41,7.41,0,0,0,3.33,2.65A5.16,5.16,0,0,0,671.63,277.33Z"/><path class="cls-2" d="M274.5,738.1c-9.45,18.63-19,37.55-23.15,58s-2.27,43.07,9.7,60.2c12.3,17.58,33.07,26.89,53.06,34.68a939.17,939.17,0,0,0,331.22,64"/><path class="cls-2" d="M274.5,738.1c-4.54,14.15-9.05,28.39-11.46,42.46-.62,3.51-1.05,7-1.39,10.47s-.47,6.9-.44,10.23a79.86,79.86,0,0,0,2.49,19.26,55.65,55.65,0,0,0,6.92,16.17,44.45,44.45,0,0,0,4.92,6.16c.44.45.92.86,1.36,1.29l.67.64.73.59,1.44,1.18,1.53,1.1c8.23,5.73,19.05,9.34,31.82,12.31,2.83,1.56,5.8,3.1,8.92,4.65,1.54.77,3.15,1.54,4.77,2.3l4.85,2.3,9.71,4.61c3.24,1.53,6.53,2.94,9.8,4.42l9.83,4.39,9.93,4.18,10,4.17,10,3.95q40.23,15.78,82.15,27.82A929.62,929.62,0,0,0,645.33,955a943.09,943.09,0,0,1-177.85-4.43q-44.55-5.32-88.8-14.89l-11.06-2.4-11-2.65-11-2.67-11-2.91c-3.65-1-7.32-1.91-11-2.95l-10.91-3.16-5.46-1.58c-1.82-.53-3.64-1.06-5.51-1.65-3.72-1.15-7.54-2.39-11.44-3.78-3.54-2.16-7.16-4.55-10.73-7s-7.19-5.18-10.73-8.16a114.18,114.18,0,0,1-10.3-9.62c-1.66-1.7-3.24-3.58-4.8-5.43-.78-.92-1.51-1.94-2.26-2.9s-1.48-1.95-2.16-3l-2-3.09c-.65-1.06-1.27-2.14-1.89-3.21l-.91-1.61-.84-1.67c-.54-1.12-1.11-2.22-1.61-3.35a83.05,83.05,0,0,1-4.62-13.67,88.11,88.11,0,0,1-2.05-26.81c.11-2.16.4-4.28.65-6.39.14-1,.32-2.1.49-3.14s.35-2.07.57-3.1a107.31,107.31,0,0,1,3.12-12c1.26-3.92,2.71-7.64,4.28-11.29s3.29-7.16,5.13-10.57C257,762.19,265.76,750.12,274.5,738.1Z"/><path class="cls-2" d="M1304.54,131.4c55.9-9.27,111.33,15.09,162.59,39.24,71.36,33.62,142.43,68,210.9,107.19,46.44,26.56,93.71,57.45,118.55,104.84,22.25,42.44,23.46,93.5,12.49,140.15s-33.21,89.78-56.32,131.76c-14.36,26.1-29.41,52.31-50.48,73.36s-49.18,36.68-79,36.71"/><path class="cls-2" d="M1304.54,131.4a161.67,161.67,0,0,1,43.27-4.56,236.8,236.8,0,0,1,43.75,5.47c28.86,6.19,56.61,16.35,83.65,26.48,54,20.23,108,41,161.6,64,12.56,7.35,25.08,14.76,37.49,22.4,3.12,1.88,6.21,3.81,9.3,5.73s6.18,3.82,9.3,5.8c6.21,3.92,12.43,7.89,18.63,12,12.4,8.26,24.73,17,36.65,26.66a292.19,292.19,0,0,1,34,31.92,199.75,199.75,0,0,1,27.6,39,180.94,180.94,0,0,1,16.8,44.87,212.73,212.73,0,0,1,5,46.5c.06,1.93,0,3.85-.09,5.78l-.18,5.76-.4,5.74c-.14,1.91-.23,3.82-.47,5.71-.44,3.8-.77,7.6-1.39,11.35l-.83,5.64-1,5.6c-1.34,7.46-3.15,14.81-5.08,22.09-1,3.61-2.06,7.21-3.19,10.78s-2.25,7.12-3.55,10.61a404.11,404.11,0,0,1-17.08,40.89c-12.72,26.47-27.5,51.4-42.47,76-7.52,12.33-15.32,24.65-24,36.4a211.45,211.45,0,0,1-29.37,32.64,137.93,137.93,0,0,1-36.81,23.61c-13.38,5.73-27.91,8.89-42.29,8.31a96.51,96.51,0,0,0,40.78-11.51,132.64,132.64,0,0,0,33.42-25.53A202.73,202.73,0,0,0,1723,694.1c7.44-12,14-24.53,20.43-37.29,12.83-25.6,25.29-51.28,35.34-77.53a382.88,382.88,0,0,0,12.9-39.77c.93-3.33,1.64-6.71,2.46-10s1.42-6.73,2.1-10.09c1.19-6.72,2.27-13.44,2.92-20.19l.5-5.06.33-5.06c.28-3.37.28-6.74.39-10.09.08-1.69,0-3.36,0-5l-.06-5-.26-5c-.1-1.66-.14-3.33-.34-5a178.82,178.82,0,0,0-7.38-38.52,143.33,143.33,0,0,0-16.21-34.35,158.94,158.94,0,0,0-24.59-29.2c-18.86-17.8-41.64-32.36-65.8-45.71-6-3.35-12.21-6.61-18.43-9.86-3.09-1.63-6.28-3.23-9.42-4.85s-6.29-3.23-9.46-4.8c-12.62-6.4-25.37-12.59-38.15-18.73-47.85-30.72-97.3-59.77-147.14-88.48-24.84-14.31-49.43-28.21-75.62-38.54a226.06,226.06,0,0,0-40.42-12A158.26,158.26,0,0,0,1304.54,131.4Z"/><path class="cls-2" d="M1062.45,413.45c13.66-52,3.47-109.77-27.14-154-21-30.29-52.43-58.53-51.13-95.36,1.33-37.64,36.87-64.41,71-80.3,26.63-12.4,57-21.92,85.08-13.32,23.87,7.3,42.35,26.83,54.48,48.64,25.57,46,25.92,105,.87,151.26-6.8,12.56-15.5,24.72-17.3,38.89s6.87,31.08,21.15,31.69"/><path class="cls-2" d="M1062.45,413.45c6.46-43.73-3.6-87.77-25.23-122.38l-4.2-6.37c-1.42-2.1-3-4.09-4.48-6.12s-3.11-3.95-4.71-5.88l-2.39-2.87c-.8-1-1.69-1.9-2.53-2.85-6.9-7.61-14.58-15.16-22.46-23.42s-16-17.21-23.44-28.22a115.76,115.76,0,0,1-10.14-18.29,93.62,93.62,0,0,1-6.64-22,96.43,96.43,0,0,1,.06-11.9c.2-2,.36-4,.65-6s.58-4,1-5.89a88.94,88.94,0,0,1,7.77-22.06,102.61,102.61,0,0,1,12-18.45A125.79,125.79,0,0,1,992.15,96a169.72,169.72,0,0,1,31.56-21.55c5.43-2.94,10.92-5.57,16.46-8s11-4.56,16.63-6.61,11.38-3.9,17.31-5.52a175.21,175.21,0,0,1,18.28-4,133.78,133.78,0,0,1,19.26-1.62,108.17,108.17,0,0,1,19.88,1.71A95.72,95.72,0,0,1,1151,56.4a93.26,93.26,0,0,1,17.3,9.9,114.24,114.24,0,0,1,26.35,27,145.33,145.33,0,0,1,9.54,15.52l2.06,4,1.86,4.09c1.2,2.73,2.54,5.39,3.51,8.21s2.14,5.55,3.06,8.36l2.57,8.49c1.43,5.72,2.83,11.43,3.68,17.24A173.93,173.93,0,0,1,1223,194a176.26,176.26,0,0,1-5,34.16l-1.09,4.16c-.39,1.38-.69,2.77-1.18,4.13l-2.7,8.14c-1,2.67-2.12,5.3-3.18,8l-.8,2-.93,1.93-1.85,3.85c-.63,1.27-1.2,2.57-1.88,3.82l-2.09,3.71c-1.4,2.47-2.76,5-4.29,7.31-3,4.72-6,9.23-8.82,13.83a74,74,0,0,0-6.93,14.2,38.67,38.67,0,0,0-1.87,7.54,30.43,30.43,0,0,0-.31,3.83,31.57,31.57,0,0,0,.24,3.88,34.21,34.21,0,0,0,.66,3.86,33.3,33.3,0,0,0,1.19,3.75,32.51,32.51,0,0,0,1.62,3.62A28.58,28.58,0,0,0,1186,333a20.59,20.59,0,0,0,5.83,5.4,19.2,19.2,0,0,0,7.65,2.59,19.46,19.46,0,0,1-8.07-1.81,21.91,21.91,0,0,1-6.76-5,29.54,29.54,0,0,1-2.7-3.31,35,35,0,0,1-2.16-3.7,36.29,36.29,0,0,1-1.73-3.93,39.31,39.31,0,0,1-1.18-4.15,38.44,38.44,0,0,1-.74-4.29,35.82,35.82,0,0,1-.12-4.4,44.18,44.18,0,0,1,1.17-8.61,80.17,80.17,0,0,1,5.79-16.08c2.37-5.11,5-10,7.36-14.84,1.21-2.41,2.22-4.87,3.28-7.31l1.57-3.65c.5-1.23.91-2.5,1.36-3.74l1.33-3.75.67-1.86.54-1.91c.71-2.56,1.46-5.08,2.13-7.63l1.67-7.73c.32-1.27.45-2.59.66-3.89l.6-3.9a161.32,161.32,0,0,0,1.15-31.27,155,155,0,0,0-5.2-30.5c-1.28-5-3-9.77-4.79-14.55l-3-7c-1-2.31-2.26-4.53-3.37-6.79s-2.45-4.4-3.69-6.57l-1.91-3.24-2-3.11a118.31,118.31,0,0,0-9-11.64A83.92,83.92,0,0,0,1150.81,93a59.47,59.47,0,0,0-11.89-5.16,60.93,60.93,0,0,0-12.39-2.27,72.39,72.39,0,0,0-13,.36,96.69,96.69,0,0,0-13.35,2.66,136.32,136.32,0,0,0-13.5,4.53c-4.51,1.77-9,3.82-13.52,6s-9.08,4.61-13.32,7-8.45,5-12.42,7.8a121.88,121.88,0,0,0-21,17.89,74.63,74.63,0,0,0-7.56,9.76,49.48,49.48,0,0,0-4.83,9.74,34.41,34.41,0,0,0-2,9.27c-.1.75-.05,1.51-.1,2.26s.06,1.51.06,2.25a38.2,38.2,0,0,0,.6,4.53c-.65,6.12.61,13.53,3.82,21.78s8.06,17,13.6,26.12,11.75,18.57,17.64,28.8c.73,1.3,1.48,2.56,2.18,3.9l2.1,4c1.38,2.68,2.82,5.32,4,8.09s2.52,5.44,3.62,8.21l3.2,8.33C1078.77,323.64,1078.08,372.12,1062.45,413.45Z"/><path class="cls-2" d="M1095.18,140.22a720.89,720.89,0,0,0-9,92.63c-.18,5.58-.06,11.83,3.86,15.82,4.32,4.42,11.83,4.13,17.19,1s9-8.34,12.56-13.42"/><path class="cls-2" d="M1095.17,140.22q10.07,26.44,22,51.2-4.62,11.39-8.87,23-2.13,5.82-4.15,11.72l-2,5.9-.5,1.46-.47,1.26-.86,2.19a17.89,17.89,0,0,1-1.37,2.94,2.74,2.74,0,0,1-.66.72l-.35.28-.16.15-.08.08-.32.32h0l-.07.1a1.27,1.27,0,0,0-.15.44,1.64,1.64,0,0,0,.35,1,5.28,5.28,0,0,0,2.86,1.74,11,11,0,0,0,4.28.26,18.11,18.11,0,0,0,5-1.71,56.79,56.79,0,0,0,10.08-7,60.55,60.55,0,0,1-5.12,12.11,27.85,27.85,0,0,1-4.59,5.8,23.74,23.74,0,0,1-7.13,4.52,22.06,22.06,0,0,1-9.3,1.6,20.14,20.14,0,0,1-5.4-1,20.51,20.51,0,0,1-5.39-2.79,24.9,24.9,0,0,1-7.55-9.1,44.62,44.62,0,0,1-3.3-9.11l-3.26-13.65q-1.5-6.34-2.9-12.74-2.79-12.79-5.13-25.79Q1077.22,162.13,1095.17,140.22Z"/><path class="cls-2" d="M1143.49,150.21a193.05,193.05,0,0,0,14,121.71"/><path class="cls-2" d="M1143.48,150.21c.83,1.94,1.67,3.86,2.51,5.74l1.26,2.8,1.38,2.77q1.38,2.74,2.78,5.4c1,1.77,2,3.52,3,5.23l1.51,2.54,1.61,2.51c1.08,1.65,2.15,3.27,3.23,4.86s2.29,3.16,3.43,4.69l1.71,2.27,1.81,2.23-1.71,4.49-1.52,4.59-.76,2.33-.67,2.35-1.33,4.76-1.12,4.83-.57,2.46-.46,2.46-.92,5-.71,5.05-.35,2.56-.24,2.56-.48,5.18-.26,5.22-.12,2.65v8l.22,5.35.12,2.71.24,2.7.49,5.45-3.74-4-1.88-2.05-1.8-2.12-3.61-4.3-3.44-4.46-1.73-2.27-1.64-2.32-3.29-4.72-3.1-4.87-1.56-2.47-1.46-2.51-2.93-5.11-2.72-5.23-1.37-2.66-1.26-2.69-2.53-5.46-2.31-5.58-1.16-2.83-1-2.85-2.08-5.79-1.87-5.89,1.74-3,1.84-2.92q1.85-2.91,3.69-5.7c1.3-1.87,2.61-3.7,3.91-5.5l2-2.68,2.06-2.63q2.05-2.59,4.11-5.1c1.44-1.66,2.88-3.28,4.31-4.88l2.14-2.37,2.25-2.3Q1141.26,152.38,1143.48,150.21Z"/><path class="cls-2" d="M1364.26,425.68c-49.45,70.91-64.11,164.93-38.6,247.52,4.14,13.39,9.31,26.74,9.77,40.75s-4.94,29.26-17.19,36.07"/><path class="cls-2" d="M1364.26,425.68a267.81,267.81,0,0,0-16.91,110.25,270.85,270.85,0,0,0-15,105.16l1.12,13.68,1.94,13.66c1.4,9.09,3.76,18.73,4.87,28.88a88.46,88.46,0,0,1,.45,15.46,55.2,55.2,0,0,1-3.15,15.26,43.9,43.9,0,0,1-7.54,13.24,31,31,0,0,1-11.76,8.75,29,29,0,0,0,8.8-10.71,38.34,38.34,0,0,0,3.61-12.93,46.29,46.29,0,0,0-.58-13.11,75.46,75.46,0,0,0-3.65-12.79c-1.57-4.22-3.43-8.4-5.4-12.68s-4.09-8.62-6-13.23l-5.67-13.9-4.87-14.27a313.6,313.6,0,0,1-12.62-122.07C1309.76,485.39,1334.8,451.64,1364.26,425.68Z"/><path class="cls-2" d="M1427.06,440.76c-43.83,82-55.53,180.67-32.09,270.66"/><polygon class="cls-2" points="1427.06 440.76 1425.01 452.71 1424.02 458.6 1423.31 464.57 1421.95 476.34 1421.17 488.12 1420.81 493.92 1420.71 499.77 1420.56 511.31 1420.97 522.81 1421.19 528.47 1421.67 534.15 1417.46 544.24 1413.72 554.55 1411.84 559.74 1410.2 565.01 1406.9 575.61 1404.1 586.38 1402.69 591.8 1401.53 597.27 1399.21 608.28 1397.39 619.42 1396.48 625.03 1395.84 630.66 1394.54 642 1393.77 653.42 1393.39 659.16 1393.28 664.91 1393.07 676.48 1393.41 688.08 1393.59 693.91 1394.04 699.72 1394.97 711.42 1390.58 700.5 1388.38 695 1386.45 689.42 1382.57 678.16 1379.22 666.71 1377.55 660.94 1376.14 655.12 1373.32 643.39 1371.05 631.51 1369.91 625.54 1369.05 619.53 1367.33 607.43 1366.16 595.24 1365.58 589.1 1365.27 582.96 1364.68 570.6 1364.64 558.2 1364.64 551.95 1364.9 545.73 1365.47 533.21 1366.6 520.68 1369.76 515.06 1373.17 509.55 1379.95 498.7 1387.21 488.22 1390.82 483.06 1394.67 478.04 1402.32 468.16 1410.41 458.7 1414.42 454.05 1418.66 449.57 1427.06 440.76"/><path class="cls-2" d="M1227.42,898c-84.62,5.63-168.2-21.43-245.29-56.78s-150.22-79.29-229-110.74a790.67,790.67,0,0,0-351-53.91"/><path class="cls-2" d="M1227.42,898a373.57,373.57,0,0,1-73,4.34,481.7,481.7,0,0,1-73.61-8.47,707.18,707.18,0,0,1-72.21-18c-23.76-7.18-47.18-15.4-70.17-24.05-42.93-23.64-84-48.67-125.78-71.5-20.86-11.42-41.88-22.31-63.27-32.24s-43.29-18.78-65.59-26.77a786.88,786.88,0,0,0-281.62-44.76,801.25,801.25,0,0,1,289.76,17.61q35.72,9,70.71,21.06c23.26,8.13,46.08,17.26,68.56,26.84,45,19.17,88.54,40.14,132.14,58.84,20.25,12.56,40.58,24.55,61.39,35.63a674.32,674.32,0,0,0,64,30.11,460.22,460.22,0,0,0,67.56,21.64A366.61,366.61,0,0,0,1227.42,898Z"/><path class="cls-2" d="M419.31,82.91C369.43,94.59,319.07,106.44,273,128.78s-88.26,56.38-110.82,102.37c-21,42.75-23.51,91.93-24.39,139.55-2.06,111,2.75,222.1,10.27,332.9"/><path class="cls-2" d="M419.31,82.91c-20.64,7.27-41.3,14.53-61.46,22.57s-39.85,16.8-58.36,27c-9.25,5.08-18.27,10.5-26.81,16.26a280.78,280.78,0,0,0-24.38,18.62,208.36,208.36,0,0,0-39.11,43.7,157.85,157.85,0,0,0-17.66,21.68A153.92,153.92,0,0,0,178,257.26c-7.75,17.41-12.65,36.94-16,57.27s-5.1,41.59-6.59,63.23-2.79,43.23-3.84,64.9c-4.17,86.67-4.68,173.79-3.5,260.94-10.6-86.51-19.56-173.35-24.85-260.76-1.31-21.85-2.44-43.73-3.24-65.65s-1.5-44.21-.27-67.13a339.64,339.64,0,0,1,3.57-34.76,239.27,239.27,0,0,1,8.17-35.2,206,206,0,0,1,14.35-34.38A213.34,213.34,0,0,1,166,174.35a259.06,259.06,0,0,1,58.59-42.27,318.25,318.25,0,0,1,31.7-14.74c10.77-4.26,21.57-7.88,32.44-11.07,21.72-6.41,43.58-10.84,65.35-14.45S397.59,85.58,419.31,82.91Z"/></svg>