<svg id="Camada_4" data-name="Camada 4" xmlns="http://www.w3.org/2000/svg" viewBox="0 0 1920 1080"><defs><style>.cls-1{fill:#1d1d1b;}.cls-2{fill:none;stroke:#1d1d1b;}</style></defs><path class="cls-1" d="M1421.42,100.27q-12.33-5.72-25-11.36l-12.66-5.64A129.72,129.72,0,0,0,1370,78.05,154.5,154.5,0,0,0,1341.45,72a193.2,193.2,0,0,0-28.92-1.26A215.71,215.71,0,0,0,1284,73.43a221.87,221.87,0,0,0-27.7,6.27,210.83,210.83,0,0,0-26.33,9.73,173.16,173.16,0,0,0-24.28,13.38c-1.21.75-2.31,1.6-3.44,2.42l-3.38,2.47c-2.23,1.66-4.56,3.25-6.66,5l-6.45,5.18-3.22,2.6-3.13,2.67c-8.41,7-16.56,14.29-24.68,21.53-16.19,14.53-31.94,29.34-47.55,44.35s-30.93,30.37-46.08,46.16-30,32.09-44.8,48.76c-1.62,1.83-3.23,3.64-4.84,5.39L1009,292l-1.21,1.33-.31.34-.37.43-.75.87a71.69,71.69,0,0,0-5.34,6.94c-1.46,2.31-3,4.62-4.25,6.93a228.08,228.08,0,0,0-13.13,27.89c-7.49,18.72-13.54,37.66-19.06,56.73S954.27,431.76,950,451.11q-3.18,14.52-5.8,29.18c-1.7,9.8-3.24,19.62-4.16,29.69l-.31,3.79-.33,3.54c-.25,2.36-.35,4.74-.78,7.06l-.54,3.5c-.18,1.17-.32,2.35-.61,3.49-.53,2.29-.94,4.62-1.56,6.89a100.77,100.77,0,0,1-10.7,26l-.89,1.53c-.3.51-.64,1-1,1.49l-1.94,3c-.67,1-1.38,1.92-2.08,2.88l-1,1.44-1.11,1.4c-2.91,3.76-6.15,7.31-9.47,10.86s-6.83,7.07-10.16,10.77l-9.87,11c-6.57,7.24-13.29,14.33-20.46,20.89s-14.83,12.65-23.43,16.86a43.93,43.93,0,0,1-6.63,2.58l-3.54,1-1.81.52-.91.25-.89.33a62.52,62.52,0,0,0-13.44,6.58,85.2,85.2,0,0,0-11.78,9.07,86.37,86.37,0,0,0-10.06,10.88l0,0Q683.88,795.61,572,912.92l-.15.16-.55.44-.82.65c-.3.26-.6.5-.91.78-.6.53-1.2,1.08-1.79,1.65-1.18,1.13-2.3,2.34-3.37,3.58a49.54,49.54,0,0,0-5.57,8A34.37,34.37,0,0,0,554.23,946a32.36,32.36,0,0,0,1.52,9.1,41.68,41.68,0,0,0,3.83,8.71A71.05,71.05,0,0,0,572,979.34a79.63,79.63,0,0,0,15.79,12.22c1.44.72,2.83,1.59,4.3,2.16.73.31,1.45.66,2.18.94l2.21.77a36.93,36.93,0,0,0,8.95,1.71,31.74,31.74,0,0,0,17.19-4.28,40.6,40.6,0,0,0,7.53-5.49,44,44,0,0,0,3.34-3.35c.53-.58,1-1.18,1.52-1.78l.7-.89.54-.76.47-.65.36-.36q43.41-43.85,87-87.43c47-46.93,93.9-94.83,140.86-143.06l.17-.18.62-.52c.29-.25.86-.74,1.31-1.15s1-.9,1.45-1.34c1-.92,1.9-1.87,2.83-2.85,1.83-1.95,3.61-4,5.24-6.1a68.94,68.94,0,0,0,8.25-13.36c.56-1.15,1-2.35,1.46-3.51s.77-2.38,1.17-3.55.56-2.39.87-3.58l.53-2.38c.19-.93.44-1.81.7-2.68a73,73,0,0,1,8.76-18.42,148.85,148.85,0,0,1,11.33-15.3c4-4.79,8.14-9.33,12.36-13.75s8.51-8.67,12.75-12.86l6.27-6.21c2-2,3.94-4,6-6.22,8.17-8.69,17.65-18,28.84-25l2.07-1.33c.7-.44,1.43-.82,2.14-1.23l4.31-2.4,4.44-2.15c.75-.35,1.48-.74,2.24-1l2.27-.93c1.52-.61,3-1.25,4.56-1.83l4.64-1.56,2.32-.77c.78-.25,1.57-.43,2.35-.65l4.7-1.24c1.56-.46,3.15-.71,4.72-1l4.74-.94c3.16-.53,6.33-.91,9.49-1.36l4.19-.53c1.37-.16,2.78-.41,4.17-.6s2.8-.45,4.2-.69,2.81-.47,4.23-.75c11.3-2.09,22.68-4.67,34-7.48,22.65-5.64,45.17-12.12,67.3-19.33,11.07-3.62,22-7.42,32.83-11.52s21.39-8.48,31.5-13.34c5-2.47,9.92-5,14.43-7.8l3.24-2.12a18.72,18.72,0,0,0,1.53-1.08l1.46-1.09.74-.54.62-.55,1.24-1.08c.37-.29,1-.88,1.51-1.39l1.64-1.55c8.74-8.26,17.44-16,26.19-23.85,17.47-15.59,35-30.95,52.4-46.26,16-14,30.39-27.12,43.87-39.93s26.07-25.27,38.07-38.25l4.53-4.86c1.49-1.63,2.93-3.3,4.4-5s2.92-3.33,4.39-5l2.19-2.51c.73-.84,1.41-1.71,2.12-2.57l4.2-5.18c1.38-1.74,2.89-3.45,4.13-5.26s2.6-3.59,3.9-5.41l2-2.72c.59-.93,1.18-1.87,1.78-2.8,9.4-15.08,16.06-33,19.84-53.24a222.7,222.7,0,0,0,3.67-37.41,189.58,189.58,0,0,0-4.2-42.77,137.53,137.53,0,0,0-6.22-20.72c-.7-1.63-1.29-3.3-2.05-4.88s-1.39-3.11-2.27-4.88l-4.87-10.12c-6.39-13.35-12.3-26-17.3-37a211.87,211.87,0,0,1,19.1,29.4q4.23,7.77,8,15.83c.66,1.36,1.19,2.64,1.77,4,.28.66.57,1.3.83,2l.75,2c.5,1.34,1,2.68,1.41,4.06s.89,2.72,1.23,4.12a117.24,117.24,0,0,1,3.31,16.91,147.16,147.16,0,0,1,1.16,17.15,233.62,233.62,0,0,1-2.17,33.67,253.65,253.65,0,0,1-7.49,36.83c-1.69,5.92-3.58,11.74-5.76,17.4a171.16,171.16,0,0,1-7.34,16.44c-1.34,2.67-2.81,5.24-4.29,7.8l-2.32,3.77-2.6,3.72-2.59,3.74-1.3,1.87c-.43.62-.94,1.23-1.4,1.85l-5.72,7.41c-1.85,2.5-3.93,4.9-5.92,7.35l-6,7.32-12.48,14.4c-15.3,17.25-31.91,33.93-49,50.3s-34.79,32.38-52.55,48.21l-26.64,23.65c-4.43,4-8.85,7.86-13.25,11.86-2.2,2-4.39,3.94-6.59,6l-3.29,3.07-1.65,1.54-1.31,1.11a82.31,82.31,0,0,1-12.68,8.42c-4.74,2.59-9.68,5-14.71,7.34-10.06,4.62-20.44,8.73-30.75,12.68a915.36,915.36,0,0,1-89.31,28.34c-15.24,4-30.68,7.7-46,10.38-3.84.68-7.62,1.22-11.39,1.69l-6.38.9c-1.06.17-2.12.29-3.18.48l-3.18.65-3.18.65c-1.06.21-2.12.42-3.17.73l-6.31,1.69c-2.08.65-4.15,1.38-6.23,2.08l-1.55.53-1.53.62-3,1.25a111.94,111.94,0,0,0-23,13,127.54,127.54,0,0,0-10.13,8.31c-3.16,2.93-6.23,5.94-9.09,8.95l-4.25,4.47c-1.37,1.43-2.73,2.87-4.1,4.26-2.79,2.81-5.69,5.65-8.61,8.54-5.82,5.76-11.68,11.67-17.32,17.9a180.94,180.94,0,0,0-16,20,89.93,89.93,0,0,0-6.67,11.57c-.49,1-1,2.08-1.41,3.17s-.86,2.18-1.24,3.3-.71,2.3-1.06,3.45l-.77,3.38a46.52,46.52,0,0,1-1.35,5.12,51.54,51.54,0,0,1-1.9,5,64.85,64.85,0,0,1-5.33,9.66,81.83,81.83,0,0,1-6.9,8.93c-1.26,1.41-2.56,2.8-3.91,4.12-.67.66-1.35,1.31-2,1.93s-1.43,1.28-2,1.72l-.45.38-.18.18c-50,51-100.52,101.6-151.36,150.78-27.62,26.71-53.19,52.7-77.86,78.38l-.64.67-.21.37c-.05.09-.29.43-.46.67l-.6.8c-.42.55-.86,1.08-1.3,1.62-.91,1.07-1.88,2.1-2.88,3.09a43.8,43.8,0,0,1-6.47,5.28,36.85,36.85,0,0,1-7.23,3.76,31.25,31.25,0,0,1-7.78,1.83,33.61,33.61,0,0,1-4,.18,35.06,35.06,0,0,1-4.06-.39,35.92,35.92,0,0,1-4-.83c-.69-.15-1.34-.42-2-.62s-1.35-.39-2-.69a62,62,0,0,1-15.2-8.81A93.41,93.41,0,0,1,564.65,974a56.45,56.45,0,0,1-9.71-15.06l-.82-2.06c-.26-.7-.45-1.41-.67-2.11a39.63,39.63,0,0,1-1.05-4.3,37.67,37.67,0,0,1-.36-8.82,39.4,39.4,0,0,1,5.91-17,47.57,47.57,0,0,1,5.47-7.2c1-1.11,2.07-2.15,3.16-3.15a36.83,36.83,0,0,1,3.3-2.71l.19-.14.17-.18c28.59-28.57,57.9-52.63,86.14-82,31.65-32.86,59.9-72.77,94.79-107.05a22.62,22.62,0,0,0-4.25,7c9.9-16.67,25.48-35.68,43.88-55.64l-.48.56c.71-1,1.28-1.65,1.92-2.44s1.26-1.51,1.92-2.24,1.31-1.46,2-2.16,1.36-1.43,2.07-2.11a84.92,84.92,0,0,1,9.1-7.83c.81-.62,1.63-1.22,2.49-1.78l2.55-1.72c1.79-1,3.52-2.19,5.42-3.1a66.89,66.89,0,0,1,11.79-4.83l3.17-.79,2.79-.66a38.33,38.33,0,0,0,4.78-1.47,63.54,63.54,0,0,0,9.55-4.78A139.46,139.46,0,0,0,868,624.81c5.81-4.95,11.39-10.21,16.82-15.53s10.66-10.76,16.1-16,10.65-10,15.18-15.1a97.61,97.61,0,0,0,11.68-15.89,104.31,104.31,0,0,0,11.29-29c.68-2.54,1.07-5.15,1.53-7.75s.76-5.23,1.06-7.87l.44-4,.4-4.13c.33-2.73.64-5.48,1.05-8.19,1.54-10.9,3.57-21.69,5.78-32.46s4.65-21.48,7.23-32.15c5.19-21.34,10.93-42.49,17.41-63.23,3.24-10.36,6.68-20.62,10.46-30.74A284.81,284.81,0,0,1,997.31,313a92.2,92.2,0,0,1,9.78-15.31c2.26-2.72,3.87-4.42,5.71-6.47s3.61-4,5.41-6c7.23-8,14.44-16.14,21.7-24.09q21.75-23.88,44-46.69t45.35-45c15.42-14.75,31.14-29.33,47.6-43.5,2.12-1.84,4.25-3.69,6.39-5.53l6.55-5.44c4.26-3.73,8.91-7.15,13.44-10.71a169.07,169.07,0,0,1,30.11-17.66,211.89,211.89,0,0,1,68-18.06c3-.31,5.91-.45,8.87-.65s5.93-.25,8.9-.22a171.61,171.61,0,0,1,17.84.79c3,.24,5.93.66,8.89,1.05s5.9.94,8.83,1.59a132.62,132.62,0,0,1,17.37,4.77c1.44.47,2.85,1,4.25,1.57s2.82,1.09,4.2,1.73,2.81,1.25,4.11,1.85l3.76,1.81q7.52,3.63,14.89,7.36,14.74,7.47,28.82,15.48"/><path class="cls-1" d="M1232.63,137.55c-26.24,27.24-49.09,57.32-70.17,88.51-11.37,15-22.38,30.31-33.27,45.72L1112.91,295c-5.41,7.73-10.76,15.48-15.93,23.35-2.61,3.91-5.1,7.9-7.62,11.88s-4.9,8-7.18,12.14a249,249,0,0,0-12.67,25.18c-.46,1.08-1,2.14-1.4,3.23l-1.29,3.28c-.83,2.2-1.77,4.36-2.47,6.61l-2.23,6.69-1.9,6.8a154.17,154.17,0,0,0-4.48,27.88,154.17,154.17,0,0,1,3.52-28.11l1.67-6.91,2-6.82c.63-2.29,1.49-4.5,2.26-6.74l1.18-3.36c.4-1.11.86-2.2,1.3-3.31a249.33,249.33,0,0,1,11.89-25.84c2.15-4.23,4.5-8.35,6.81-12.49s4.76-8.2,7.25-12.24c4.92-8.09,10-16.07,15.17-24l15.47-23.76c10.36-15.81,20.87-31.55,31.78-47.06C1179.42,191.53,1204.55,162.88,1232.63,137.55Z"/><path class="cls-1" d="M1262.28,144.82a119.41,119.41,0,0,1-.44,27.76,154.94,154.94,0,0,1-6.18,27.26,210.77,210.77,0,0,1-10.38,26A263.8,263.8,0,0,1,1232,250.55c-20.75,31.09-46,58.69-73.07,83.95s-56,48.35-85.16,71.08c28.3-23.75,56.38-47.83,82.4-73.93s49.95-54.26,69.16-85.39a262.21,262.21,0,0,0,14.7-23.12,207.88,207.88,0,0,0,11.93-24.64C1258.72,181.57,1262.9,163.34,1262.28,144.82Z"/><path class="cls-1" d="M1336.08,200.59a413.51,413.51,0,0,0-60.44,67.91A411.84,411.84,0,0,0,1249,305.18c-8.21,12.73-15.8,26-24.36,38.74a224.45,224.45,0,0,1-13.74,18.48,137.05,137.05,0,0,1-16.19,16.4,114.78,114.78,0,0,1-9.14,7l-2.41,1.57c-.79.53-1.61,1-2.44,1.52l-2.48,1.46-2.54,1.34-1.27.67-1.3.61-2.61,1.22-2.66,1.07-1.33.54-1.36.46-2.71.92-2.76.77-1.38.38-1.4.3-2.79.6,2.76-.72,1.39-.36,1.35-.44,2.71-.88,2.66-1,1.33-.52,1.29-.59,2.59-1.18,2.53-1.31,1.26-.66,1.22-.72,2.46-1.43,2.38-1.55c.8-.5,1.58-1,2.34-1.6l2.31-1.65c3-2.32,5.94-4.69,8.68-7.29a133.35,133.35,0,0,0,15.18-16.78,219.33,219.33,0,0,0,12.73-18.77c7.9-12.92,14.88-26.45,22.62-39.7a420.21,420.21,0,0,1,25.43-38.44A417.31,417.31,0,0,1,1336.08,200.59Z"/><polygon class="cls-1" points="1392.09 252.95 1389.07 261.4 1387.56 265.63 1385.91 269.8 1382.62 278.16 1379.04 286.4 1377.26 290.53 1375.34 294.59 1371.49 302.73 1367.39 310.74 1365.33 314.75 1363.15 318.69 1358.79 326.57 1354.18 334.32 1351.87 338.2 1349.44 342 1344.59 349.61 1339.5 357.07 1336.95 360.8 1334.29 364.45 1328.96 371.76 1323.42 378.9 1320.5 382.35 1317.48 385.72 1311.44 392.44 1305.2 398.99 1302.08 402.25 1298.86 405.43 1292.43 411.77 1285.82 417.92 1282.51 420.99 1279.12 423.97 1272.32 429.91 1265.36 435.65 1261.88 438.51 1258.31 441.28 1251.18 446.8 1243.89 452.1 1240.25 454.76 1236.53 457.3 1229.08 462.38 1221.49 467.23 1217.7 469.65 1213.83 471.97 1206.1 476.58 1198.24 480.96 1194.31 483.15 1190.31 485.22 1182.32 489.35 1174.21 493.23 1170.15 495.17 1166.04 496.99 1157.81 500.61 1149.48 503.98 1145.31 505.66 1141.09 507.21 1132.66 510.3 1124.14 513.13 1119.88 514.53 1115.57 515.81 1106.97 518.35 1098.28 520.61 1093.94 521.74 1089.57 522.72 1080.82 524.69 1089.51 522.48 1093.85 521.38 1098.15 520.13 1106.76 517.64 1115.27 514.86 1119.53 513.48 1123.74 511.95 1132.15 508.9 1140.46 505.59 1144.62 503.93 1148.72 502.14 1156.91 498.57 1164.99 494.74 1169.03 492.82 1173.01 490.78 1180.96 486.7 1188.78 482.38 1192.68 480.22 1196.52 477.94 1204.2 473.38 1211.73 468.6 1215.5 466.2 1219.19 463.7 1226.57 458.69 1233.8 453.46 1237.41 450.84 1240.94 448.12 1248 442.68 1254.89 437.03 1258.34 434.2 1261.69 431.28 1268.41 425.43 1274.94 419.38 1278.21 416.36 1281.39 413.24 1287.74 407 1293.89 400.58 1296.97 397.37 1299.95 394.07 1305.91 387.46 1311.66 380.69 1314.54 377.3 1317.31 373.83 1323.14 367.12 1328.77 360.23 1331.58 356.79 1334.29 353.26 1339.71 346.19 1344.91 338.96 1347.51 335.34 1350 331.64 1354.98 324.24 1359.72 316.69 1362.1 312.91 1364.35 309.05 1368.86 301.34 1373.12 293.48 1375.25 289.55 1377.25 285.55 1381.26 277.55 1385 269.42 1386.87 265.35 1388.61 261.22 1392.09 252.95"/><path class="cls-2" d="M1428.3,113.51l-48.51-23.6c-48.51-23.61-125.65-18-173.53,16.34S1044,272.07,1015.35,301.33,949.57,466.1,945.26,514.4,917,582.25,902.72,596.89s-42.9,48.71-67,53.8-40.72,27-40.72,27L568.32,909.31s-44.48,31.55,0,75,73.44,0,73.44,0L871,755.1s21.71-16.89,26.53-41,38.6-53.07,53.08-67.55,33.77-38.6,82-43.42,183.36-43.43,212.31-72.38,159.22-144.75,193-193,38.6-125.45,14.47-173.7l-24.12-48.25"/><path class="cls-2" d="M1421.42,100.27q-12.33-5.72-25-11.36l-12.66-5.64A129.72,129.72,0,0,0,1370,78.05,154.5,154.5,0,0,0,1341.45,72a193.2,193.2,0,0,0-28.92-1.26A215.71,215.71,0,0,0,1284,73.43a221.87,221.87,0,0,0-27.7,6.27,210.83,210.83,0,0,0-26.33,9.73,173.16,173.16,0,0,0-24.28,13.38c-1.21.75-2.31,1.6-3.44,2.42l-3.38,2.47c-2.23,1.66-4.56,3.25-6.66,5l-6.45,5.18-3.22,2.6-3.13,2.67c-8.41,7-16.56,14.29-24.68,21.53-16.19,14.53-31.94,29.34-47.55,44.35s-30.93,30.37-46.08,46.16-30,32.09-44.8,48.76c-1.62,1.83-3.23,3.64-4.84,5.39L1009,292l-1.21,1.33-.31.34-.37.43-.75.87a71.69,71.69,0,0,0-5.34,6.94c-1.46,2.31-3,4.62-4.25,6.93a228.08,228.08,0,0,0-13.13,27.89c-7.49,18.72-13.54,37.66-19.06,56.73S954.27,431.76,950,451.11q-3.18,14.52-5.8,29.18c-1.7,9.8-3.24,19.62-4.16,29.69l-.31,3.79-.33,3.54c-.25,2.36-.35,4.74-.78,7.06l-.54,3.5c-.18,1.17-.32,2.35-.61,3.49-.53,2.29-.94,4.62-1.56,6.89a100.77,100.77,0,0,1-10.7,26l-.89,1.53c-.3.51-.64,1-1,1.49l-1.94,3c-.67,1-1.38,1.92-2.08,2.88l-1,1.44-1.11,1.4c-2.91,3.76-6.15,7.31-9.47,10.86s-6.83,7.07-10.16,10.77l-9.87,11c-6.57,7.24-13.29,14.33-20.46,20.89s-14.83,12.65-23.43,16.86a43.93,43.93,0,0,1-6.63,2.58l-3.54,1-1.81.52-.91.25-.89.33a62.52,62.52,0,0,0-13.44,6.58,85.2,85.2,0,0,0-11.78,9.07,86.37,86.37,0,0,0-10.06,10.88l0,0Q683.88,795.61,572,912.92l-.15.16-.55.44-.82.65c-.3.26-.6.5-.91.78-.6.53-1.2,1.08-1.79,1.65-1.18,1.13-2.3,2.34-3.37,3.58a49.54,49.54,0,0,0-5.57,8A34.37,34.37,0,0,0,554.23,946a32.36,32.36,0,0,0,1.52,9.1,41.68,41.68,0,0,0,3.83,8.71A71.05,71.05,0,0,0,572,979.34a79.63,79.63,0,0,0,15.79,12.22c1.44.72,2.83,1.59,4.3,2.16.73.31,1.45.66,2.18.94l2.21.77a36.93,36.93,0,0,0,8.95,1.71,31.74,31.74,0,0,0,17.19-4.28,40.6,40.6,0,0,0,7.53-5.49,44,44,0,0,0,3.34-3.35c.53-.58,1-1.18,1.52-1.78l.7-.89.54-.76.47-.65.36-.36q43.41-43.85,87-87.43c47-46.93,93.9-94.83,140.86-143.06l.17-.18.62-.52c.29-.25.86-.74,1.31-1.15s1-.9,1.45-1.34c1-.92,1.9-1.87,2.83-2.85,1.83-1.95,3.61-4,5.24-6.1a68.94,68.94,0,0,0,8.25-13.36c.56-1.15,1-2.35,1.46-3.51s.77-2.38,1.17-3.55.56-2.39.87-3.58l.53-2.38c.19-.93.44-1.81.7-2.68a73,73,0,0,1,8.76-18.42,148.85,148.85,0,0,1,11.33-15.3c4-4.79,8.14-9.33,12.36-13.75s8.51-8.67,12.75-12.86l6.27-6.21c2-2,3.94-4,6-6.22,8.17-8.69,17.65-18,28.84-25l2.07-1.33c.7-.44,1.43-.82,2.14-1.23l4.31-2.4,4.44-2.15c.75-.35,1.48-.74,2.24-1l2.27-.93c1.52-.61,3-1.25,4.56-1.83l4.64-1.56,2.32-.77c.78-.25,1.57-.43,2.35-.65l4.7-1.24c1.56-.46,3.15-.71,4.72-1l4.74-.94c3.16-.53,6.33-.91,9.49-1.36l4.19-.53c1.37-.16,2.78-.41,4.17-.6s2.8-.45,4.2-.69,2.81-.47,4.23-.75c11.3-2.09,22.68-4.67,34-7.48,22.65-5.64,45.17-12.12,67.3-19.33,11.07-3.62,22-7.42,32.83-11.52s21.39-8.48,31.5-13.34c5-2.47,9.92-5,14.43-7.8l3.24-2.12a18.72,18.72,0,0,0,1.53-1.08l1.46-1.09.74-.54.62-.55,1.24-1.08c.37-.29,1-.88,1.51-1.39l1.64-1.55c8.74-8.26,17.44-16,26.19-23.85,17.47-15.59,35-30.95,52.4-46.26,16-14,30.39-27.12,43.87-39.93s26.07-25.27,38.07-38.25l4.53-4.86c1.49-1.63,2.93-3.3,4.4-5s2.92-3.33,4.39-5l2.19-2.51c.73-.84,1.41-1.71,2.12-2.57l4.2-5.18c1.38-1.74,2.89-3.45,4.13-5.26s2.6-3.59,3.9-5.41l2-2.72c.59-.93,1.18-1.87,1.78-2.8,9.4-15.08,16.06-33,19.84-53.24a222.7,222.7,0,0,0,3.67-37.41,189.58,189.58,0,0,0-4.2-42.77,137.53,137.53,0,0,0-6.22-20.72c-.7-1.63-1.29-3.3-2.05-4.88s-1.39-3.11-2.27-4.88l-4.87-10.12c-6.39-13.35-12.3-26-17.3-37a211.87,211.87,0,0,1,19.1,29.4q4.23,7.77,8,15.83c.66,1.36,1.19,2.64,1.77,4,.28.66.57,1.3.83,2l.75,2c.5,1.34,1,2.68,1.41,4.06s.89,2.72,1.23,4.12a117.24,117.24,0,0,1,3.31,16.91,147.16,147.16,0,0,1,1.16,17.15,233.62,233.62,0,0,1-2.17,33.67,253.65,253.65,0,0,1-7.49,36.83c-1.69,5.92-3.58,11.74-5.76,17.4a171.16,171.16,0,0,1-7.34,16.44c-1.34,2.67-2.81,5.24-4.29,7.8l-2.32,3.77-2.6,3.72-2.59,3.74-1.3,1.87c-.43.62-.94,1.23-1.4,1.85l-5.72,7.41c-1.85,2.5-3.93,4.9-5.92,7.35l-6,7.32-12.48,14.4c-15.3,17.25-31.91,33.93-49,50.3s-34.79,32.38-52.55,48.21l-26.64,23.65c-4.43,4-8.85,7.86-13.25,11.86-2.2,2-4.39,3.94-6.59,6l-3.29,3.07-1.65,1.54-1.31,1.11a82.31,82.31,0,0,1-12.68,8.42c-4.74,2.59-9.68,5-14.71,7.34-10.06,4.62-20.44,8.73-30.75,12.68a915.36,915.36,0,0,1-89.31,28.34c-15.24,4-30.68,7.7-46,10.38-3.84.68-7.62,1.22-11.39,1.69l-6.38.9c-1.06.17-2.12.29-3.18.48l-3.18.65-3.18.65c-1.06.21-2.12.42-3.17.73l-6.31,1.69c-2.08.65-4.15,1.38-6.23,2.08l-1.55.53-1.53.62-3,1.25a111.94,111.94,0,0,0-23,13,127.54,127.54,0,0,0-10.13,8.31c-3.16,2.93-6.23,5.94-9.09,8.95l-4.25,4.47c-1.37,1.43-2.73,2.87-4.1,4.26-2.79,2.81-5.69,5.65-8.61,8.54-5.82,5.76-11.68,11.67-17.32,17.9a180.94,180.94,0,0,0-16,20,89.93,89.93,0,0,0-6.67,11.57c-.49,1-1,2.08-1.41,3.17s-.86,2.18-1.24,3.3-.71,2.3-1.06,3.45l-.77,3.38a46.52,46.52,0,0,1-1.35,5.12,51.54,51.54,0,0,1-1.9,5,64.85,64.85,0,0,1-5.33,9.66,81.83,81.83,0,0,1-6.9,8.93c-1.26,1.41-2.56,2.8-3.91,4.12-.67.66-1.35,1.31-2,1.93s-1.43,1.28-2,1.72l-.45.38-.18.18c-50,51-100.52,101.6-151.36,150.78-27.62,26.71-53.19,52.7-77.86,78.38l-.64.67-.21.37c-.05.09-.29.43-.46.67l-.6.8c-.42.55-.86,1.08-1.3,1.62-.91,1.07-1.88,2.1-2.88,3.09a43.8,43.8,0,0,1-6.47,5.28,36.85,36.85,0,0,1-7.23,3.76,31.25,31.25,0,0,1-7.78,1.83,33.61,33.61,0,0,1-4,.18,35.06,35.06,0,0,1-4.06-.39,35.92,35.92,0,0,1-4-.83c-.69-.15-1.34-.42-2-.62s-1.35-.39-2-.69a62,62,0,0,1-15.2-8.81A93.41,93.41,0,0,1,564.65,974a56.45,56.45,0,0,1-9.71-15.06l-.82-2.06c-.26-.7-.45-1.41-.67-2.11a39.63,39.63,0,0,1-1.05-4.3,37.67,37.67,0,0,1-.36-8.82,39.4,39.4,0,0,1,5.91-17,47.57,47.57,0,0,1,5.47-7.2c1-1.11,2.07-2.15,3.16-3.15a36.83,36.83,0,0,1,3.3-2.71l.19-.14.17-.18c28.59-28.57,57.9-52.63,86.14-82,31.65-32.86,59.9-72.77,94.79-107.05a22.62,22.62,0,0,0-4.25,7c9.9-16.67,25.48-35.68,43.88-55.64l-.48.56c.71-1,1.28-1.65,1.92-2.44s1.26-1.51,1.92-2.24,1.31-1.46,2-2.16,1.36-1.43,2.07-2.11a84.92,84.92,0,0,1,9.1-7.83c.81-.62,1.63-1.22,2.49-1.78l2.55-1.72c1.79-1,3.52-2.19,5.42-3.1a66.89,66.89,0,0,1,11.79-4.83l3.17-.79,2.79-.66a38.33,38.33,0,0,0,4.78-1.47,63.54,63.54,0,0,0,9.55-4.78A139.46,139.46,0,0,0,868,624.81c5.81-4.95,11.39-10.21,16.82-15.53s10.66-10.76,16.1-16,10.65-10,15.18-15.1a97.61,97.61,0,0,0,11.68-15.89,104.31,104.31,0,0,0,11.29-29c.68-2.54,1.07-5.15,1.53-7.75s.76-5.23,1.06-7.87l.44-4,.4-4.13c.33-2.73.64-5.48,1.05-8.19,1.54-10.9,3.57-21.69,5.78-32.46s4.65-21.48,7.23-32.15c5.19-21.34,10.93-42.49,17.41-63.23,3.24-10.36,6.68-20.62,10.46-30.74A284.81,284.81,0,0,1,997.31,313a92.2,92.2,0,0,1,9.78-15.31c2.26-2.72,3.87-4.42,5.71-6.47s3.61-4,5.41-6c7.23-8,14.44-16.14,21.7-24.09q21.75-23.88,44-46.69t45.35-45c15.42-14.75,31.14-29.33,47.6-43.5,2.12-1.84,4.25-3.69,6.39-5.53l6.55-5.44c4.26-3.73,8.91-7.15,13.44-10.71a169.07,169.07,0,0,1,30.11-17.66,211.89,211.89,0,0,1,68-18.06c3-.31,5.91-.45,8.87-.65s5.93-.25,8.9-.22a171.61,171.61,0,0,1,17.84.79c3,.24,5.93.66,8.89,1.05s5.9.94,8.83,1.59a132.62,132.62,0,0,1,17.37,4.77c1.44.47,2.85,1,4.25,1.57s2.82,1.09,4.2,1.73,2.81,1.25,4.11,1.85l3.76,1.81q7.52,3.63,14.89,7.36,14.74,7.47,28.82,15.48"/><path class="cls-2" d="M1232.63,137.55c-46.92,45.2-83.73,99.64-120.17,153.64-27,39.94-54.87,82.67-56.72,130.81"/><path class="cls-2" d="M1232.63,137.55c-26.24,27.24-49.09,57.32-70.17,88.51-11.37,15-22.38,30.31-33.27,45.72L1112.91,295c-5.41,7.73-10.76,15.48-15.93,23.35-2.61,3.91-5.1,7.9-7.62,11.88s-4.9,8-7.18,12.14a249,249,0,0,0-12.67,25.18c-.46,1.08-1,2.14-1.4,3.23l-1.29,3.28c-.83,2.2-1.77,4.36-2.47,6.61l-2.23,6.69-1.9,6.8a154.17,154.17,0,0,0-4.48,27.88,154.17,154.17,0,0,1,3.52-28.11l1.67-6.91,2-6.82c.63-2.29,1.49-4.5,2.26-6.74l1.18-3.36c.4-1.11.86-2.2,1.3-3.31a249.33,249.33,0,0,1,11.89-25.84c2.15-4.23,4.5-8.35,6.81-12.49s4.76-8.2,7.25-12.24c4.92-8.09,10-16.07,15.17-24l15.47-23.76c10.36-15.81,20.87-31.55,31.78-47.06C1179.42,191.53,1204.55,162.88,1232.63,137.55Z"/><path class="cls-2" d="M1262.28,144.81c2.44,34.47-11.65,68.1-29.75,97.53-40,65-99.48,115.25-158.78,163.24"/><path class="cls-2" d="M1262.28,144.82a119.41,119.41,0,0,1-.44,27.76,154.94,154.94,0,0,1-6.18,27.26,210.77,210.77,0,0,1-10.38,26A263.8,263.8,0,0,1,1232,250.55c-20.75,31.09-46,58.69-73.07,83.95s-56,48.35-85.16,71.08c28.3-23.75,56.38-47.83,82.4-73.93s49.95-54.26,69.16-85.39a262.21,262.21,0,0,0,14.7-23.12,207.88,207.88,0,0,0,11.93-24.64C1258.72,181.57,1262.9,163.34,1262.28,144.82Z"/><path class="cls-2" d="M1336.08,200.59a415.21,415.21,0,0,0-89.16,102.31c-12.07,19.59-22.57,40.27-36.91,58.26s-33.33,33.46-55.86,38.09"/><path class="cls-2" d="M1336.08,200.59a413.51,413.51,0,0,0-60.44,67.91A411.84,411.84,0,0,0,1249,305.18c-8.21,12.73-15.8,26-24.36,38.74a224.45,224.45,0,0,1-13.74,18.48,137.05,137.05,0,0,1-16.19,16.4,114.78,114.78,0,0,1-9.14,7l-2.41,1.57c-.79.53-1.61,1-2.44,1.52l-2.48,1.46-2.54,1.34-1.27.67-1.3.61-2.61,1.22-2.66,1.07-1.33.54-1.36.46-2.71.92-2.76.77-1.38.38-1.4.3-2.79.6,2.76-.72,1.39-.36,1.35-.44,2.71-.88,2.66-1,1.33-.52,1.29-.59,2.59-1.18,2.53-1.31,1.26-.66,1.22-.72,2.46-1.43,2.38-1.55c.8-.5,1.58-1,2.34-1.6l2.31-1.65c3-2.32,5.94-4.69,8.68-7.29a133.35,133.35,0,0,0,15.18-16.78,219.33,219.33,0,0,0,12.73-18.77c7.9-12.92,14.88-26.45,22.62-39.7a420.21,420.21,0,0,1,25.43-38.44A417.31,417.31,0,0,1,1336.08,200.59Z"/><path class="cls-2" d="M1392.09,253C1342.31,387.68,1221,493.56,1080.82,524.69"/><polygon class="cls-2" points="1392.09 252.95 1389.07 261.4 1387.56 265.63 1385.91 269.8 1382.62 278.16 1379.04 286.4 1377.26 290.53 1375.34 294.59 1371.49 302.73 1367.39 310.74 1365.33 314.75 1363.15 318.69 1358.79 326.57 1354.18 334.32 1351.87 338.2 1349.44 342 1344.59 349.61 1339.5 357.07 1336.95 360.8 1334.29 364.45 1328.96 371.76 1323.42 378.9 1320.5 382.35 1317.48 385.72 1311.44 392.44 1305.2 398.99 1302.08 402.25 1298.86 405.43 1292.43 411.77 1285.82 417.92 1282.51 420.99 1279.12 423.97 1272.32 429.91 1265.36 435.65 1261.88 438.51 1258.31 441.28 1251.18 446.8 1243.89 452.1 1240.25 454.76 1236.53 457.3 1229.08 462.38 1221.49 467.23 1217.7 469.65 1213.83 471.97 1206.1 476.58 1198.24 480.96 1194.31 483.15 1190.31 485.22 1182.32 489.35 1174.21 493.23 1170.15 495.17 1166.04 496.99 1157.81 500.61 1149.48 503.98 1145.31 505.66 1141.09 507.21 1132.66 510.3 1124.14 513.13 1119.88 514.53 1115.57 515.81 1106.97 518.35 1098.28 520.61 1093.94 521.74 1089.57 522.72 1080.82 524.69 1089.51 522.48 1093.85 521.38 1098.15 520.13 1106.76 517.64 1115.27 514.86 1119.53 513.48 1123.74 511.95 1132.15 508.9 1140.46 505.59 1144.62 503.93 1148.72 502.14 1156.91 498.57 1164.99 494.74 1169.03 492.82 1173.01 490.78 1180.96 486.7 1188.78 482.38 1192.68 480.22 1196.52 477.94 1204.2 473.38 1211.73 468.6 1215.5 466.2 1219.19 463.7 1226.57 458.69 1233.8 453.46 1237.41 450.84 1240.94 448.12 1248 442.68 1254.89 437.03 1258.34 434.2 1261.69 431.28 1268.41 425.43 1274.94 419.38 1278.21 416.36 1281.39 413.24 1287.74 407 1293.89 400.58 1296.97 397.37 1299.95 394.07 1305.91 387.46 1311.66 380.69 1314.54 377.3 1317.31 373.83 1323.14 367.12 1328.77 360.23 1331.58 356.79 1334.29 353.26 1339.71 346.19 1344.91 338.96 1347.51 335.34 1350 331.64 1354.98 324.24 1359.72 316.69 1362.1 312.91 1364.35 309.05 1368.86 301.34 1373.12 293.48 1375.25 289.55 1377.25 285.55 1381.26 277.55 1385 269.42 1386.87 265.35 1388.61 261.22 1392.09 252.95"/></svg>