<?xml version="1.0" encoding="iso-8859-1"?>
<!-- Generator: Adobe Illustrator 16.0.2, SVG Export Plug-In . SVG Version: 6.00 Build 0)  -->
<!DOCTYPE svg PUBLIC "-//W3C//DTD SVG 1.1//EN" "http://www.w3.org/Graphics/SVG/1.1/DTD/svg11.dtd">
<svg version="1.1" id="Layer_1" xmlns="http://www.w3.org/2000/svg" xmlns:xlink="http://www.w3.org/1999/xlink" x="0px" y="0px"
	 width="1280px" height="800px" viewBox="0 0 1280 800" style="enable-background:new 0 0 1280 800;" xml:space="preserve">
<g>
	<g>
		<g>
			<g>
				<path style="fill:#202020;" d="M627.182,596.754c-0.48,0.007-0.589,0.069-0.249,0.149c0.341,0.066,1.1,0.177,2.341-0.037
					c0,0,0.423-0.179,0.815-0.382c0.373-0.235,0.746-0.471,0.746-0.471s-0.844,0.379-1.766,0.573
					c-0.464,0.062-0.931,0.156-1.29,0.146C627.421,596.745,627.182,596.754,627.182,596.754z"/>
				<path style="fill:#202020;" d="M639.589,586.623c0.951-2.975,1.226-6.56,0.146-4.827c-0.102,1.535-0.321,2.452-0.541,3.396
					c-0.24,0.946-0.487,1.919-0.893,3.519c-1.082,2.396-2.474,3.784-2.351,3.323c-0.202,0.408-0.81,1.196-1.542,1.93
					c-0.729,0.736-1.565,1.433-2.098,1.868c1.508-0.685,2.989-1.997,4.184-3.678c1.214-1.673,2.15-3.705,2.799-5.861
					C639.767,585.443,639.573,586.374,639.589,586.623z"/>
				<path style="fill:#202020;" d="M634.559,329.852l-0.148,1.693C634.546,331.07,634.584,330.491,634.559,329.852z"/>
				<path style="fill:#202020;" d="M670.412,192.336c-0.96,0.586-1.174,1.138-1.061,1.444
					C670.112,193.047,670.788,192.499,670.412,192.336z"/>
				<path style="fill:#202020;" d="M695.042,187.194c-0.544,0.015-0.993,0.073-1.484,0.109
					C694.185,187.49,694.771,187.533,695.042,187.194z"/>
				<path style="fill:#202020;" d="M634.559,329.852l0.415-4.357C633.99,325.317,634.525,327.757,634.559,329.852z"/>
				<path style="fill:#202020;" d="M643.316,551.635c0.013,0.887,0.082,1.63,0.176,2.313c-0.005-0.729-0.011-1.435-0.017-2.164
					C643.421,551.742,643.373,551.705,643.316,551.635z"/>
				<path style="fill:#202020;" d="M644.079,399.735l0.118,1.296c0.312,0.353,0.679,0.674,1.085,0.973L644.079,399.735z"/>
				<path style="fill:#202020;" d="M648.426,453.746c0.009-1.23-1.76-1.52-2.555-1.928c0.767,0.634,1.165,1.51,1.363,2.572
					C647.564,454.385,647.947,454.195,648.426,453.746z"/>
				<path style="fill:#202020;" d="M647.64,539.752l0.073,1.528C647.69,540.882,647.678,540.213,647.64,539.752z"/>
				<path style="fill:#202020;" d="M640.838,361.099c0.332-0.132,0.613-0.36,0.771-0.588
					C641.32,360.545,641.066,360.77,640.838,361.099z"/>
				<path style="fill:#202020;" d="M543.331,698.313c-0.066,0.052-0.026,0.121-0.063,0.176
					C543.592,698.517,543.707,698.486,543.331,698.313z"/>
				<path style="fill:#202020;" d="M600.853,723.069l-0.839-0.226c-0.104,0.027-0.212,0.055-0.228,0.107L600.853,723.069z"/>
				<path style="fill:#202020;" d="M741.43,187.666c-0.093-0.038-0.126-0.04-0.216-0.067
					C739.907,187.885,740.641,187.856,741.43,187.666z"/>
				<path style="fill:#202020;" d="M658.252,242.046c5.271,0.602-8.371,2.021-0.463,2.524
					C657.023,244.199,664.785,242.153,658.252,242.046z"/>
				<path style="fill:#202020;" d="M643.481,550.256c0.02-0.723,0.039-1.46,0.059-2.197
					C643.487,549.058,643.463,549.731,643.481,550.256z"/>
				<path style="fill:#202020;" d="M657.789,244.57c0,0.004,0.001,0.009,0.001,0.009l0.813,0.045
					C658.268,244.603,658.077,244.59,657.789,244.57z"/>
				<path style="fill:#202020;" d="M852.759,199.015c-0.087-0.536-0.412-1.012-0.761-1.478
					C851.958,197.825,852.113,198.231,852.759,199.015z"/>
				<path style="fill:#202020;" d="M770.774,183.134l2.066,0.535C772.03,183.343,771.364,183.206,770.774,183.134z"/>
				<path style="fill:#202020;" d="M894.751,209.553c0.921,0.609,1.107,1.085,2.596,1.353c-0.066-0.18-0.15-0.322-0.272-0.48
					C896.434,210.545,895.723,210.419,894.751,209.553z"/>
				<path style="fill:#202020;" d="M905.291,227.132c0.226,0.106,0.456,0.132,0.697,0.192c0.178-0.17,0.402-0.338,0.575-0.516
					c0,0-0.326,0.098-0.646,0.176C905.6,227.066,905.291,227.132,905.291,227.132z"/>
				<path style="fill:#202020;" d="M421.198,632.102c0.485,1.061,0.631,1.963,0.685,2.76
					C422.131,633.228,427.9,636.598,421.198,632.102z"/>
				<path style="fill:#202020;" d="M643.819,551.645c-0.214-0.283-0.313-0.683-0.338-1.389c-0.002,0.526-0.004,1.035-0.006,1.528
					C643.603,551.928,643.726,551.965,643.819,551.645z"/>
				<path style="fill:#202020;" d="M904.941,190.922c0,0,1.816,0.937,3.632,1.953c1.813,1.004,3.639,2.124,3.639,2.124
					C910.242,193.621,907.592,192.128,904.941,190.922z"/>
				<path style="fill:#202020;" d="M382.771,372.091l-0.98,1.356C382.256,373.013,382.62,372.55,382.771,372.091z"/>
				<path style="fill:#202020;" d="M932.219,222.617c-1.162,2.176-2.294,4.289-3.574,6.32c-0.006,0.506-0.083,1.075,0.054,1.474
					c0,0,0.293-0.443,0.719-1.126c0.208-0.343,0.468-0.74,0.705-1.182c0.212-0.454,0.438-0.938,0.664-1.422
					c0.491-0.964,0.793-1.998,1.078-2.762c0.146-0.382,0.207-0.712,0.267-0.941C932.188,222.748,932.219,222.617,932.219,222.617z"
					/>
				<path style="fill:#202020;" d="M421.883,634.887c-0.008-0.014,0-0.025,0-0.025S421.875,634.873,421.883,634.887z"/>
				<path style="fill:#202020;" d="M464.511,656.488c-5.893-3.586-3.903,0.385-5.827,0.842c-7.486-3.562-2.429-3.5-4.222-6.03
					c-4.705-2.099-9.204-2.226-12.44-4.315c-0.028-0.512-0.575-1.049,0.431-1.028c-2.797-0.614-6.264-2.705-9.758-4.938
					c-3.532-2.183-7.124-4.452-10.5-5.104c-0.258-0.464-0.329-0.788-0.313-1.027c0.097,1.713-0.53,2.953-1.249,3.657
					c-2.616-1.694-5.756-1.838-5.715-3.984c1.545,1.129,2.083,0.618,3.13,0.664l-3.121-1.213c-0.941-3.815,4.162,1.797,5.219,0.22
					c-2.817-1.479-6.074-2.797-9.017-4.265c-1.478-0.724-2.898-1.456-4.161-2.231c-1.25-0.794-2.35-1.621-3.211-2.503
					c0.375-1.362,2.765,0.173,4.593,1.313c1.852,1.115,3.115,1.861,1.177-0.977l5.491,5.21c-1.172-3.333-0.279-2.614,0.656-1.878
					c0.957,0.72,1.963,1.446,1.064-1.849c-3.711-3.217-6.102-4.558-8.444-5.972c-1.179-0.697-2.357-1.396-3.699-2.325
					c-1.33-0.942-2.799-2.144-4.583-3.812c-2.628-0.192-0.771,2.186-3.415,1.994c-3.122-1.667-4.946-3.291-6.083-4.81
					c-1.12-1.539-1.53-3.003-1.875-4.354c-0.341-1.354-0.604-2.61-1.405-3.768c-0.788-1.172-2.087-2.264-4.57-3.27
					c-1.585-0.187-3.163,0.204-4.833-0.179c-1.662-0.386-3.516-1.471-5.45-4.697c0,0,0.987-0.142,1.974-0.282
					c0.99-0.153,1.98-0.306,1.98-0.306c-6.378-6.817-7.104-0.445-12.348-9.111c2.134,0.395,5.839,4.61,5.141,3.313
					c-2.5-6.396-4.44-1.951-7.724-5.618l1.464-2.696c-3.517-3.493-7.213-7.164-11.003-10.929c-1.889-1.901-3.705-3.904-5.548-5.93
					c-0.874-1.041-1.744-2.096-2.602-3.163c-0.862-1.066-1.713-2.146-2.472-3.282c1.069,0.039,2.815,1.096,2.257-1.546
					c-4.3-5.315-7.707-11.78-10.13-18.461c-2.428-6.687-3.902-13.559-4.56-19.834c0,0-0.252-0.242-0.592-0.617
					c-0.337-0.38-0.788-0.886-1.238-1.392c-0.912-1.034-1.824-2.068-1.824-2.068c-0.226-1.117,0.702-2.278,1.475-1.202
					c0.078-4.995-1.715,0.085-3.151-2.067c-0.659-2.793,0.875-3.925,1.958-2.306c-0.983-2.031-1.772-4.584-2.637-7.415
					c-0.418-1.416-0.678-2.916-0.995-4.452c-0.141-0.772-0.283-1.552-0.426-2.335c-0.078-0.79-0.156-1.585-0.235-2.38
					c-0.116-1.594-0.304-3.2-0.245-4.779c0.044-1.579,0.134-3.134,0.281-4.628c0.14-1.494,0.502-2.918,0.828-4.25
					c0.373-1.329,0.706-2.571,1.284-3.661c0,0,0.115,0.478,0.23,0.954c0.142,0.478,0.283,0.954,0.283,0.954
					c0.21-0.878,0.381-1.662,0.438-2.392c0.058-0.729,0.019-1.4-0.081-2.034c-0.196-1.266-0.644-2.386-1.03-3.494
					c-0.662-2.188-1.206-4.393,0.812-7.425c0,0,0.017,0.348,0.033,0.694c0.036,0.351,0.072,0.701,0.072,0.701
					c2.551-7.625,5.165-15.707,8.528-23.067c0.872-1.823,1.718-3.627,2.621-5.353c0.97-1.697,1.951-3.337,2.949-4.896
					c0.966-1.577,2.065-3.007,3.174-4.337c1.104-1.332,2.227-2.56,3.37-3.658c-0.817-1.926,1.746-5.15,4.018-8.325
					c2.393-3.116,4.555-6.18,3.063-7.97c7.432-6.297,6.317-3.703,15.587-13.251c2.402-2.599,1.426-5.799,4.027-9.442l1.623,1.353
					c0,0,0.596-1.493,1.191-2.986c0.612-1.493,1.224-2.986,1.224-2.986l3.894-0.672l2.472-3.382
					c-1.213,1.119-3.053,1.916-3.297,1.324c0.96-1.336,2.193-2.659,3.506-3.884c1.307-1.231,2.705-2.353,4.041-3.249
					c2.646-1.82,4.849-2.926,5.23-2.628c0,0,0.593-0.768,1.532-1.873c0.947-1.101,2.21-2.568,3.473-4.035
					c1.271-1.464,2.533-2.945,3.535-3.997c0.989-1.068,1.649-1.78,1.649-1.78c0.204,0.773-1.586,2.652-2.759,4.4
					c4.901-6.901,2.282,0.401,6.798-5.902c-0.997,0.375-0.242-1.152-0.33-1.531c1.735-0.849,4.259-2.618,6.887-4.772
					c2.619-2.167,5.504-4.525,7.842-6.694l-0.309,1.624c9.048-6.944,18.876-15.08,29.723-22.076
					c-4.091,2.171-4.038,0.262-0.898-1.893l1.974,0.328c1.638-2.025-3.604,1.7,0.118-1.868c2.08-1.238,2.971-1.331,3.059-0.909
					c0.084,0.415-0.614,1.372-1.66,2.316c0,0,0.292-0.224,0.732-0.56c0.437-0.34,1.027-0.781,1.625-1.209
					c1.195-0.861,2.39-1.723,2.39-1.723c0.486,0.152-0.585,1.044-0.64,1.658c0.82-0.977,3.14-2.021,5.522-3.209
					c2.393-1.172,4.89-2.418,6.073-3.871l0.458,0.15c2.772-1.646,5.209-2.995,7.403-4.251c2.199-1.249,4.157-2.404,6.092-3.447
					c1.928-1.057,3.791-2.077,5.749-3.15c1.968-1.056,4.068-2.088,6.424-3.266c-0.208-0.936,3.583-2.556,6.162-4.498
					c1.802-0.721,3.654-1.462,5.554-2.223c1.92-0.709,3.888-1.437,5.902-2.182c4.002-1.549,8.249-3.009,12.565-4.796
					c5.995-2.709,1.539-1.351,4.129-2.864c0.362,0.276,2.724-0.418,4.451-0.903c1.735-0.466,2.837-0.712,0.646,0.344
					c5.276-1.891,8.622-3.175,12.363-4.448c1.862-0.667,3.811-1.365,6.13-2.195c2.33-0.805,5.031-1.738,8.387-2.897
					c-1.564,0.136-3.266,0.502-2.48-0.009c2.43-0.889,5.734-1.305,5.478-0.85l-0.634,0.259c7.505-2.752,16.597-4.43,25.277-5.785
					c8.724-1.284,17.011-2.262,23.104-4.113l-0.686,0.191c0,0,3.207-0.711,6.413-1.422c3.202-0.749,6.439-1.347,6.439-1.347
					c6.023-0.56-3.505,1.102,1.011,1.135c6.916-1.624,12.518-2.041,17.789-2.384c2.641-0.146,5.21-0.217,7.837-0.396
					c2.627-0.186,5.316-0.441,8.218-0.853c2.315,0.676,5.465,0.903,9.094,0.966c3.633,0.088,7.73-0.102,11.938-0.261
					c8.413-0.293,17.24-0.728,23.389,0.558l-0.727-0.906c3.147-0.849,3.842,0.557,6.179,0.808c-0.346-0.722-3.452-0.863-1.493-1.34
					c13.407-0.452,27.285,0.101,41.301,1.025c7.028,0.491,14.079,0.984,21.107,1.476c3.579,0.22,7.152,0.439,10.714,0.659
					l2.659,0.149c0.753,0.029,1.349,0.099,2.142,0.16c1.628,0.153,3.253,0.305,4.874,0.458c4.922,0.452,6.425-1.115,8.204-2.368
					c1.794-1.244,3.898-2.159,10.248-0.282l-3.685,2.299c10.261-0.945,20.773-0.508,31.3-0.278
					c10.517,0.222,21.107,0.261,31.269-1.82c-1.171,0.725-1.143,1.571-3.154,1.672c2.243,0.906,6.297,0.699,9.773-0.043
					c3.479-0.731,6.353-2.002,6.276-2.856c3.26-0.195,0.949,1.455,3.082,2.064c2.319,0.335,5.047-0.733,7.499-1.733
					c2.459-1.001,4.646-1.941,6.097-1.167c0.491,0.252-1.126,0.947-1.93,1.28c1.375-0.792,4.862-1.5,7.627-2.387
					c2.769-0.881,4.75-1.901,2.89-2.591c2.137-0.357,4.222-1.072,6.219-1.933c0.539-0.259,1.075-0.517,1.607-0.773l1.014-0.502
					l0.982-0.581c0.647-0.389,1.29-0.775,1.929-1.159c0.601-0.426,1.197-0.85,1.79-1.271c0.604-0.404,1.155-0.855,1.692-1.311
					c0.532-0.458,1.104-0.872,1.595-1.348c0.968-0.964,1.955-1.879,2.783-2.885c1.759-1.942,3.229-3.976,4.575-6.081
					c-0.019-0.412,0.032-0.826,0.049-1.276c0.012-0.452,0.055-0.917,0.123-1.394c0.081-0.474,0.155-0.969,0.216-1.484
					c0.079-0.509,0.161-1.034,0.245-1.57c0.243-2.151,0.531-4.523,0.2-6.749c-0.663-4.446-3.307-7.769-5.698-7.467
					c1.082-0.34,1.078-1.607,0.028-3.409c-0.992-1.831-3.292-3.971-6.115-5.994c-3.364-2.236-5.083-3.012-7.252-3.834
					c-2.071-0.769-3.98-1.208-5.357-1.297c2.124-0.461-3.538-3.112-0.971-3.919c-5.449-2.406-10.873-3.452-10.642-0.991
					l-0.401-0.393c-0.132-0.126-0.312-0.266-0.283-0.329l-0.061-0.224c-0.082-0.096,0.238-0.027,0.138-0.125
					c-0.513-0.463-1.047-0.881-1.597-1.26c-1.1-0.758-2.265-1.361-3.456-1.854c-1.191-0.492-2.406-0.882-3.616-1.2
					c-1.222-0.274-2.435-0.49-3.606-0.702c-2.347-0.42-4.523-0.84-6.332-1.656c-1.821-0.758-3.267-1.956-4.146-4.06
					c-16.79-3.069-32.063-4.684-46.767-6.067c1.294-4.593,16.151,2.538,16.469-2.216c-3.574-0.349-6.8-0.307-9.828-0.261
					c-1.515,0.031-2.979,0.061-4.417,0.118c-1.435,0.065-2.844,0.129-4.252,0.192c-5.614,0.155-11.111,0.142-17.896-1.295
					c-3.479-1.057,2.251-1.812,3.563-2.423c-3.53,0.026-6.96-0.142-10.326-0.46c-3.363-0.272-6.658-0.624-9.91-0.972
					c-3.248-0.318-6.447-0.575-9.618-0.682c-3.168-0.088-6.299,0.045-9.41,0.47c0.063-0.444,1.42-0.836,2.698-1.11
					c-2.434-0.025-5.587-1.109-5.448,1.1l2.393-0.433c3.633,3.404-9.98,6.004-10.486,7.679c4.43-6.062-11.956-2.231-5.058-9.824
					c-1.609,0.327-3.651,1.26-3.36,2.747c-2.329-0.552-3.04-1.449-0.566-2.994c-4.36,0.374-5.805,1.196-7.128,1.859
					c-0.663,0.333-1.299,0.627-2.258,0.812c-0.941,0.172-2.266,0.275-4.311,0.228c0.055-1.068,1.715-1.447,2.619-2.682
					c-2.132,0.994-4.232,1.992-6.644,2.626c-1.202,0.349-2.482,0.605-3.891,0.724c-1.408,0.111-2.944,0.095-4.667-0.036
					c0.389-0.661-0.444-1.463,1.614-1.539c-2.964,0.229-5.687,0.673-8.296,1.427c-1.304,0.357-2.576,0.736-3.835,1.131
					c-1.252,0.433-2.498,0.864-3.752,1.298c-2.501,0.799-5.005,1.757-7.702,2.371c-2.686,0.757-5.568,1.198-8.83,1.538
					c2.671-5.416-4.686-0.452-6.47-3.971c0,0-1.678,0.793-3.327,1.628c-1.633,0.885-3.266,1.771-3.266,1.771l3.372,0.87
					c-1.491,0.501-2.879,1.166-4.194,1.884c-1.299,0.787-2.525,1.626-3.729,2.416c-1.216,0.758-2.352,1.628-3.559,2.27
					c-1.205,0.652-2.446,1.171-3.772,1.55c0,0,0.209-0.229,0.524-0.573c0.316-0.342,0.734-0.816,1.178-1.237
					c0.888-0.871,1.774-1.741,1.774-1.741s-0.652,0.36-1.632,0.9c-0.99,0.508-2.245,1.344-3.515,2.127
					c-0.631,0.396-1.262,0.793-1.854,1.166c-0.584,0.385-1.112,0.778-1.572,1.098c-0.913,0.649-1.522,1.081-1.522,1.081
					s1.622-0.562,3.243-1.125c1.639-0.468,3.277-0.936,3.277-0.936c-2.289,2.4-1.489,3.39-1.139,4.175
					c0.354,0.784,0.335,1.345-3.341,2.961c1.107-1.235-4.987,3.182-8.849,3.534c0,0,0.017-0.013,0.01-0.021
					c-0.823,1.407-1.508,2.954-2.53,4.355c-1.054,1.375-2.253,2.807-4.17,4.073c-1.737,0.004-2.471-3.645-3.613-3.655
					c0.025,1.108-0.492,2.419-1.299,3.829c-0.407,0.702-0.889,1.427-1.409,2.167c-0.49,0.76-1.001,1.553-1.516,2.351
					c-0.511,0.797-1.042,1.586-1.5,2.391c-0.434,0.82-0.832,1.632-1.157,2.417c-0.326,0.785-0.579,1.544-0.722,2.259
					c-0.118,0.729-0.115,1.422,0.018,2.047c-0.071-1.497-1.751-2.623-2.321-2.462c0,0,0.244,0.892,0.487,1.784
					c0.252,0.875,0.505,1.75,0.505,1.75c-2.16,2.05-2.62,2.315-3.856,1.132c-2.151,3.851-0.741,3.733,0.379,3.738
					c0.562,0.002,1.053,0.033,1.01,0.568c-0.021,0.268-0.176,0.661-0.524,1.244c-0.316,0.596-0.806,1.388-1.536,2.449
					c0.116-0.815-0.39-0.614-0.099-2.311c-1.244,2.25-2.289,4.565-2.987,6.946c-0.803,2.353-1.276,4.754-1.768,7.108
					c-0.272,1.172-0.438,2.355-0.641,3.521c-0.201,1.167-0.417,2.323-0.66,3.466c-0.373,2.305-0.907,4.557-1.571,6.786
					c-2.017,1.06-2.015-0.991-1.768-2.994c0.211-1.997,0.49-3.954-1.351-2.695c-0.211,1.71-0.447,3.438-0.518,5.181
					c-0.07,1.743-0.107,3.495-0.125,5.246c0.097,3.503,0.227,7.005,0.56,10.453c0.222,3.46,0.665,6.825,0.844,10.193
					c0.038,0.484,0.106,1.07,0.172,1.568l0.178,1.272c0.11,0.82,0.219,1.636,0.328,2.448c0.201,1.61,0.356,3.191,0.444,4.757
					l0.11-2.367c2.613,0.583,2.258,2.954,1.681,5.94c-0.582,2.985-1.376,6.576,0.198,9.549c-0.563-1.483-2.993-1.66-2.389-1.316
					c0.369,8.551,3.606,17.09,6.768,29.682l-1.414-1.431c-0.395,5.102,1.167,13.154,1.354,18.583
					c1.374,1.448,1.587,4.542,3.021,2.472c-2.199,8.675-0.227,16.44,1.698,23.991c1.953,7.543,3.84,14.876,2.261,22.49
					c-0.223-1.755-1.424-4.086-1.255-2.689l2.461,12.409c1.596-1.17,0.842-1.75,1.888-4.523c1.207,1.477,2.371,4.937,2.691,8.049
					c-1.721-5.528-2.726,0.331-3.371,2.856c0.468-0.46,1.128,0.316,1.627,0.058c-2.245,6.846,3.468,0.762,2.395,9.913l-0.902-0.392
					c0.788,3.306,2.193,6.29,2.294,9.931c-1.674,1.667-1.196-3.489-2.739-3.576c0.666,5.052,4.399,9.703,3.042,14.46
					c-0.686-2.114-0.988-5.216-1.698-7.325c-1.606,5.188-0.993,5.716-0.952,9.456l0.01-0.369l-0.051,8.654l0.323-2.229
					c2.521,2.99,2.978,6.217,3.283,9.728c0.293,3.514,0.458,7.308,2.087,11.507c-3.146-8.157-1.57-1.273-3.376-1.794
					c-0.304,2.217-0.554,5.569-1.124,4.656c1.724,3.951-0.452,6.797,1.946,12.386c-0.505,0.283,0.27,4.325-1.095,3.481
					c0.807,5.227,0.796-1.286,1.488-0.882c1.167,4.007,0.929,8.804,0.825,14.024c-0.12,5.225-0.099,10.869,1.134,16.685
					c0.591,5.024,1.174,8.007,1.699,10.905c0.523,2.899,0.993,5.715,1.172,10.413c-0.335,1.576-0.631,0.917-0.866-0.131
					c-0.238-1.049-0.409-2.488-0.409-2.488c-0.591,5.082-0.534,8.902-0.383,13.717c-0.24-0.987-0.517,0.001-0.935,1.436
					c-0.094,3.837,1.008,2.648,0.199,7.67c-0.246-0.896-0.694-2.053-0.938-3.923c0.061,4.525,0.236,9.03-0.162,13.704
					c-0.58,1.166-0.301-2.892-0.484-4.565c-0.128,2.621-0.409,6.004-0.717,8.931c-0.298,2.929-0.642,5.397-0.549,6.258
					c0,0,0.236-0.811,0.474-1.62c0.225-0.814,0.449-1.63,0.449-1.63c-0.368,1.886-0.695,0.855-0.551-0.549
					c0.16-2.255,0.429-3.844,0.733-4.9c0.307-1.054,0.63-1.574,0.772-1.682c0,0-0.078,0.832-0.156,1.663
					c-0.089,0.831-0.178,1.662-0.178,1.662c0.963-1.571,1.469-4.921,1.629-8.703c0.186-3.784-0.004-7.994,0.22-11.349
					c0,0,0.287,0.724,0.574,1.446c0.273,0.726,0.548,1.451,0.548,1.451s-0.124-1.749-0.307-3.493
					c-0.167-1.745-0.389-3.485-0.389-3.485c0.418-1.447,1.283-2.423,1.296,0.924c0.979-4.811-0.284-4.307,0.69-8.441
					c0.146-0.455,0.212-0.245,0.254,0.183c0,0-0.068-1.188-0.137-2.376c-0.08-1.187-0.161-2.374-0.161-2.374
					c0.3,0.936,1.135-0.767,0.803,2.143c0.614-4.248,0.414-7.694,0.169-10.463c-0.235-2.771-0.493-4.871,0.184-6.479l0.104,0.711
					c-0.274-5.907-0.651-6.184-1.102-6.093c-0.468,0.093-1.001,0.548-1.939-3.846c0,0,0.826-1.508,1.653-3.016
					c0.854-1.516,1.708-3.03,1.708-3.03l-1.473-1.115c0.022-1.22,0.061-3.63,0.67-3.207c-1.154-4.491-0.617,0.796-1.672-1.795
					c0.581-2.952,0.271-6.981,0.075-10.445c-0.19-3.464-0.245-6.366,1.046-7.101c-1.367-2.027-0.682,5.646-1.882-0.547
					c1.375-0.971,1.175-2.771,0.729-5.002c-0.44-2.231-1.144-4.889-0.617-7.604c1.663,1.535,1.092,6.661,2.196,1.216
					c-2.82-3.048,0.012-10.456-0.76-14.938c-2.244-0.041-1.582-9.729-2.963-17.215c0.848,0.407,0.194-14.33,0.529-21.451
					l0.448,0.165c-2.701-1.107-2.876-8.394-3.938-13.604c1.638,0.038,2.366,0.92,3.329,3.706l-0.443-4.96
					c-0.974-1.08-1.573-2.578-2.197-5.76l2.173,1.029c-0.684-6.597-3.72-13.017-3.155-21.659c-2.108-0.237-4.865,7.364-7.266-1.416
					c1.062-0.457,2.918-1.006,3.625,1.286c-0.226-0.752-1.221-2.631-0.923-4.23l2.251,3.364c0.402-3.952-1.769-1.84-1.94-4.941
					c1.594-0.122,0.884-2.413,2.198-2.119c0.236,0.771-0.368,2.768,0.378,3.878c-0.087-3.512,0.417-7.83,1.497-9.365
					c-0.887,0.411-2.17,0.255-2.661-2.266c-0.841-6.568,1.715-2.487,2.153-6.432c-1.313-1.459-0.571-5.806-3.073-5.613
					c-0.205-1.927,0.923-2.426,1.52-3.254c-1.474-3.273-2.096-15.873-4.387-11.694l-0.077,0.896
					c-0.072-0.157-0.097-0.348-0.178-0.542c0.003,0.029,0,0,0.003,0.029l-0.003-0.029c-1.937-5.415-2.296-11.243-2.436-17.09
					c-0.145-5.847-0.074-11.709-1.321-17.157l0.914-0.097c-1.833-6.468-2.357-14.58-4.844-19.029
					c-0.1-0.969,0.223-2.153,0.732-2.976c0.505-0.878,1.209-1.149,1.791-0.914c-0.062-0.208-0.12-0.405-0.175-0.593
					c-0.048-0.225-0.083-0.496-0.125-0.748c-0.087-0.502-0.167-0.958-0.241-1.388c-0.155-0.86-0.288-1.621-0.348-2.449
					c-0.154-1.657,0.115-3.59,1.136-7.083c1.357,5.026,1.602-1.594,0.896,5.104c1.249-6.323,2.854-7.484,1.155-14.5
					c1.063,1.307,2.023,0.242,2.68-1.483c0.164-0.433,0.309-0.908,0.432-1.402c0.144-0.487,0.272-0.991,0.371-1.489
					c0.2-0.996,0.296-1.968,0.256-2.721l-2.631,3.916c0.145-1.667,0.424-3.208,0.757-4.688c0.324-1.483,0.852-2.856,1.297-4.261
					c0,0,0.712,0.585,1.425,1.17c0.714,0.573,1.428,1.145,1.428,1.145c1.699-2.757,2.652-5.415,3.179-8.131
					c0.314-1.332,0.514-2.68,0.665-4.036c0.195-1.345,0.387-2.664,0.575-3.959c0.153-1.333,0.495-2.551,0.817-3.78
					c0.172-0.608,0.361-1.205,0.574-1.786c0.247-0.56,0.52-1.103,0.821-1.624c0.627-1.027,1.284-2.034,2.279-2.78
					c0.963-0.769,2.094-1.396,3.43-1.818c-0.036-1.931-1.374-0.942-2.678,0.223c-1.326,1.126-2.765,2.324-3.138,0.363
					c0.908-1.125,2.012-2.137,3.246-2.944c1.269-0.783,2.59-1.417,3.803-1.939c2.559-0.938,4.607-1.471,5.215-2.031
					c1.647-0.925,2.447-1.956,3.037-2.922c0.566-0.986,0.77-2.047,0.988-3.151c0.211-1.112,0.524-2.171,1.177-3.271
					c0.335-0.539,0.75-1.095,1.334-1.602c0.6-0.487,1.341-0.957,2.262-1.393c-0.773-0.225-1.858-0.869-2.189-2.025
					c-0.316-1.138,0.071-2.917,2.565-5.08c0.678-0.347,1.325-0.596,1.933-0.76c0.625-0.135,1.209-0.184,1.74-0.166
					c1.063,0.036,1.915,0.349,2.503,0.822c1.174,0.948,1.315,2.526-0.004,3.795c-1.15,0.707-1.901,0.701-2.064,0.313
					c-1.34,1.352-3.048,3.008-0.455,3.033l-0.043-1.441c1.478-0.22,3.94-1.134,5.885-1.744c2.011-0.516,3.517-0.668,3.15,0.637
					c3.226-2.821,0.798-2.646-2.351-1.914c1.834-0.331,3.334-0.829,4.792-1.246c1.443-0.437,2.708-1.027,4.062-1.479
					c2.646-1.003,5.383-1.998,9.166-2.323c-1.335-0.424-2.794-1.531-1.636-1.852c2.831-0.257,4.471-0.656,5.531-1.02
					c1.057-0.37,1.48-0.829,1.784-1.333c0.304-0.503,0.484-1.05,1.063-1.601c0.29-0.273,0.677-0.555,1.232-0.82
					c0.561-0.248,1.288-0.484,2.247-0.703c2.351,0.619,2.109,1.83,2.246,2.531c0.14,0.71,0.588,0.851,4.35-0.378
					c4.838,0.769,1.316,3.26-0.349,4.494c1.632-0.806,3.271-1.216,4.88-1.274c1.607-0.07,3.143,0.054,4.604,0.385
					c2.922,0.636,5.428,1.642,7.411,1.876c0,0-0.904,0.268-1.81,0.537c-0.452,0.129-0.9,0.271-1.232,0.388
					c-0.334,0.112-0.557,0.187-0.557,0.187c2.129-0.714,3.932-0.662,5.739-0.698l-2.113-2.525c2.17,0.413,3.993,0.406,3.94,1.487
					c2.244-1.632-1.709-4.277,2.824-6.483c0.729,0.336,1.654,0.426,2.648,0.424c1.029,0.027,2.138-0.029,3.177-0.026
					c2.081,0.008,3.901,0.265,4.35,1.977c-9.541-1.577,0.901,3.44-7.218,3.626c1.576-0.335,3.479-0.235,5.746,0.314
					c0.325,0.392-0.355,0.685-0.986,0.851c8.993,3.421,4.396-3.622,13.929-3.084c-1.31,1.833,2.003,3.716,3.572,3.394
					c-3.82-0.242-1.655-3.263,1.956-4.518c6.021,1.796,6.699-0.691,9.888-0.323l-3.601-0.927c1.36-1.801,4.405-1.369,8.709-1.657
					c0.255,1.479-3.94,0.739-2.468,1.487c4.985-2.95,10.384,4.17,17.098,2.572c2.903,1.53-0.05,3.52,2.512,4.606
					c3.755-0.841,5.657,0.009,7.585,0.895c1.937,0.874,3.874,1.857,7.785,1.341c-1.851-2.724-2.342-2.183,3.36-3.904
					c0,0-3.192,0.041-6.386,0.081c-1.591,0.01-3.19,0.064-4.39,0.107c-1.198,0.041-1.996,0.067-1.996,0.067s2.125-0.688,4.251-1.377
					c2.131-0.645,4.263-1.29,4.263-1.29c-3.797-0.556-8.226,0.633-10.456-0.04c4.088-1.616,3.635-1.034,2.029-3.294
					c2.412,2.148,5.063,1.862,7.839,1.542c2.771-0.328,5.708-0.854,8.534,0.852l-1.072,6.021c4.254,1.991,8.316,1.749,12.737,1.615
					c4.438-0.229,9.237-0.312,14.791,1.609c0,0-0.852-0.47-1.72-0.899c-0.867-0.44-1.733-0.88-1.733-0.88
					c2.071-2.064,7.136,1.236,11.051,1.18c-0.829,1.833,1.294,3.07,2.501,4.696c0.196-1.438,8.116,2.255,10.248-1.058l4.153,3.987
					c0.535,0.235,1.051,0.429,1.546,0.597c0.488,0.185,0.959,0.335,1.415,0.458c0.912,0.243,1.767,0.371,2.585,0.42
					c1.637,0.1,3.128-0.109,4.624-0.324c1.502-0.227,2.956-0.345,4.587-0.228c0.813,0.066,1.661,0.207,2.562,0.458
					c0.451,0.126,0.914,0.28,1.393,0.467c0.239,0.093,0.482,0.194,0.729,0.304c0.271,0.127,0.551,0.257,0.837,0.391
					c-0.354-0.007-0.459,0.086-0.645,0.144c-0.163,0.066-0.304,0.14-0.427,0.218c-0.245,0.156-0.418,0.332-0.55,0.516
					c-0.264,0.368-0.366,0.769-0.557,1.114c-0.379,0.69-1.12,1.15-4.164,0.708c1.369,0.571,2.636,1.188,3.632,1.513
					c0.127,0.038,0.247,0.073,0.361,0.107c0.076,0.023,0.075,0.013,0.21,0.06c0.128,0.041,0.251,0.08,0.371,0.118
					c0.269,0.085,0.398,0.101,0.559,0.128c0.153,0.023,0.297,0.038,0.429,0.044c0.585,0.042,0.7-0.16,0.848-0.458
					c0.601,0.828,2.701,0.874,4.93,1.137c2.223,0.248,4.541,0.709,5.4,2.065c1.45-0.246,2.688-1.89,5.594-0.27
					c0.148,0.499-0.434,0.814-0.434,0.814c0.436-0.859,5.136,1.329,3.592-1.863c0.334,0.594,0.706,1.167,1.098,1.714
					c0.324,0.5,0.607,0.958,0.926,1.387c0.62,0.863,1.271,1.624,1.958,2.373c0.683,0.75,1.408,1.491,2.072,2.336
					c0.654,0.836,1.273,1.817,1.39,2.917c0.091,1.085-0.028,2.188-0.381,3.199c-0.363,1.008-0.978,1.892-1.703,2.605
					c-1.494,1.403-3.471,2.073-5.197,1.685c-0.934,0.969-4.39,2.824-7.423,4.047c-3.131,1.289-6.42,2.272-9.291,2.961
					c0.265-0.591-0.16-0.856,0.96-0.925c-4.112,0.07-5.117,1.499-6.314,2.957c-1.19,1.436-2.584,2.919-7.446,2.645
					c-2.59-1.083-1.368-1.608,0.083-1.954c1.45-0.363,3.147-0.543,1.588-0.859c-1.029-2.727-3.758-2.12-7.156-1.25
					c-3.387,0.882-7.461,2.005-10.748,0.643l1.516-0.448c-2.487-0.739-5.401,0.018-8.738,0.915
					c-3.332,0.896-7.084,1.944-11.111,1.886c0,0,0.381-0.484,0.03-0.806c-5.431,2.936-15.938,3.924-23.757,4.566
					c2.456-1.958,3.556-1.041,2.1-3.048c-3.497,0.277,0.992,3.253-6.009,3.736c-2.257-1.095-7.28-2.084-7.9-4.155l6.584-0.077
					c-3.312-2.712-8.517,0.057-11.987-0.446l0.473-1.15c-5.062,0.17-7.664,0.96-10.361,1.671c-1.349,0.355-2.725,0.693-4.46,0.937
					c-0.871,0.125-1.827,0.223-2.942,0.308c-1.098,0.063-2.47,0.203-3.763,0.227l1.158,0.771c-5.783,2.911-5.008-1.285-10.821,0.926
					l-1.857-2.564c-1.946,0.398-5.355,1.162-9.16,1.894c-3.806,0.726-8.009,1.387-11.521,1.703
					c3.957-1.888,12.16-3.121,17.203-4.509c-3.869,0.169-13.166,0.765-15.173,2.026c1.562-0.287,3.521-0.967,5.073-0.64
					c-4.726,2.143-10.991,3.198-18.743,3.31c0.66-2.27-4.395-2.397-10.324-2.356c-5.931,0.049-12.74,0.226-15.585-1.203
					c-3.431,0.528-6.85,0.815-10.299,0.979c-3.454,0.185-6.938,0.246-10.495,0.284c-7.116,0.117-14.532,0.193-22.55,0.92
					c5.828,2.148-4.675,0.412-3.535,2.948c-3.714,0.455-5.135,0.521-5.479,0.385c0,0-0.712-0.039-1.78-0.097
					c-1.067-0.051-2.493-0.145-3.917-0.175c-2.853-0.076-5.704-0.152-5.704-0.152c-2.74-0.416,3.499-0.892,3.111-1.402
					c-8.188,0.701-3.517-0.669-8.99-0.646c1.188,0.688-2.722,1.562-7.41,1.843l6.664,0.219c-5.633,1.338-8.145,1.11-10.673,1.007
					c-2.524-0.097-5.075-0.164-10.731,1.256l3.534-1.219c-2.927,0.576-8.325,1.638-13.709,2.697
					c-2.686,0.551-5.333,1.278-7.664,1.935c-2.326,0.68-4.328,1.344-5.666,2.05c-1.07,0-2.535-0.225-0.013-0.935
					c-6.952,1.409-14.577,3.578-21.742,5.816c-3.585,1.097-7.076,2.165-10.329,3.161c-3.268,0.936-6.296,1.796-8.993,2.391
					l0.898-0.746c-2.489,0.922-4.17,2.105-7.446,2.721c0.105-0.229,0.877-0.758-0.297-0.403c-1.281,0.603-6.452,2.879-9.833,3.816
					l2.668-1.458c-3.316,0.991-6.207,1.994-8.842,3.003c-2.621,1.05-4.979,2.124-7.267,3.18c-2.293,1.041-4.47,2.182-6.758,3.292
					c-2.285,1.119-4.68,2.214-7.313,3.415c-0.248-0.638-2.929-0.027-6.199,0.971c-3.256,1.029-7.075,2.499-9.628,3.459l0.091-0.259
					c-14.874,6.333-24.404,12.569-37.164,20.287c-2.25,0.728-5.129,1.991-8.391,3.585c-3.216,1.671-6.854,3.606-10.556,5.784
					c-3.705,2.174-7.553,4.458-11.249,6.737c-3.74,2.213-7.311,4.44-10.634,6.252c2.143-0.952,0.661,1.558-1.394,3.245
					c-3.145,1.666-6.946,6.888-7.771,4.898l1.049-0.692c-1.719-0.069-3.947,1.106-6.333,2.696c-1.193,0.795-2.423,1.696-3.643,2.606
					c-1.203,0.934-2.403,1.865-3.524,2.735l1.166,2.856c-7.224,2.856-14.473,9.434-20.704,15.753
					c-6.208,6.378-11.363,12.512-15.947,13.855c-1.797,3.238-4.925,6.43-6.517,9.761l-1.435-1.463
					c-1.769,1.789-3.333,3.347-4.767,4.86c-1.405,1.54-2.716,3.004-4.05,4.548c-0.659,0.778-1.33,1.571-2.028,2.397
					c-0.675,0.845-1.35,1.747-2.067,2.699c-1.414,1.924-3.032,4.021-4.75,6.645c0,0,0.047-0.747,0.095-1.494
					c0.065-0.736,0.131-1.472,0.131-1.472c-2.2,2.794-2.153,5.567-2.02,8.227c0.076,1.342,0.157,2.646,0.047,3.991
					c-0.094,1.358-0.417,2.717-1.242,4.101l-3.987-0.116c-3.276,5.27-6.953,10.401-10.096,15.921
					c-0.825,1.353-1.491,2.798-2.168,4.229c-0.667,1.438-1.292,2.894-1.854,4.369c-0.532,1.49-0.927,3.038-1.278,4.585
					c-0.326,1.559-0.634,3.109-0.715,4.728c-0.451-0.364-1.369-1.061-0.762-3.038c-0.593,1.379-1.409,3.44-2.302,5.724
					c-0.444,1.142-0.902,2.34-1.338,3.543c-0.381,1.223-0.728,2.453-1.025,3.63c-1.277,4.694-1.167,8.613,1.535,7.983
					c-0.83-0.118-1.42,0.63-1.835,1.936c-0.203,0.653-0.381,1.44-0.486,2.331c-0.079,0.896-0.116,1.89-0.121,2.938
					c-0.12,4.188,0.743,9.254,1.333,12.667l-2.472-1.151c3.134,5.925,3.862,6.033,5.223,13.875c-0.127,0.946-0.54,1.396-0.947,1.297
					c-0.405-0.099-0.729-0.764-0.463-2.042c-0.271,1.598-0.128,2.69,0.102,3.546c0.236,0.856,0.604,1.476,0.975,2.13
					c0.371,0.654,0.748,1.344,1.001,2.349c0.279,1.002,0.504,2.305,0.488,4.225l-2.063-2.538c0.453,3.22,0.873,4.67,1.483,5.694
					c0.667,1.012,1.504,1.615,2.807,3.114c0.477,0.916,0.816,2.119,1.106,3.417c0.322,1.288,0.537,2.688,0.632,4.034
					c0.14,2.705,0.033,5.13-0.893,5.954c0.795,0.192,1.916,0.968,2.909,2.148c0.967,1.195,1.98,2.722,2.36,4.585
					c-0.597,0.793-1.6-0.278-2.1-0.829c0.306,1.322,0.675,2.532,1.084,3.649c0.405,1.118,0.941,2.099,1.444,3.032
					c1.049,1.844,2.082,3.447,3.214,4.858c1.098,1.432,2.121,2.771,2.947,4.227c0.854,1.441,1.569,2.964,1.955,4.854
					c-0.628,0.54-0.739,1.16-0.644,1.814c-1.048-1.853-2.046-3.614-2.947-5.207c-0.822-1.641-1.556-3.106-2.162-4.315
					c-1.224-2.41-1.751-3.891-1.547-3.63c-1.028,0.483-0.924,2.365-1.108,3.633c-0.209,1.272-0.83,2.026-3.544,0.197
					c1.035,1.092,2.324,2.324,3.673,3.667c0.668,0.668,1.363,1.363,2.075,2.075c0.729,0.693,1.459,1.405,2.173,2.132
					c2.801,2.952,5.578,5.944,6.939,9.07c0,0.388,0.005,0.766-0.144,1.158l-0.608-0.433c0.702,1.401,1.676,2.43,2.735,3.288
					c0.462,0.984,0.835,1.797,1.237,2.578c0.418,0.766,0.876,1.49,1.482,2.323c-0.505,0.862,0.497,2.599,1.877,4.467
					c1.432,1.818,3.26,3.741,4.313,5.103c1.684-1.729,4.246,1.9,3.112-2.554c0.205,0.528-0.626-0.311-2.125-1.997
					c-0.377-0.351-0.783-0.794-1.107-0.966c0.094,0.009,0.204,0.024,0.312,0.047c-1.489-1.654-3.245-3.98-5.273-6.595
					c2.648,1.407,5.045,3.043,6.373,6.742c2.318,0.373,4.718,0.838,5.976,1.16c0.197,2.777,1.361,6.209,2.534,9.119
					c1.165,2.914,2.195,5.444,1.889,6.592c2.076,1.606,4.197,3.48,6.397,5.334c2.233,1.813,4.445,3.729,6.724,5.372
					c4.509,3.346,9.034,5.898,12.831,6.364c2.57,1.419,1.758,3.043,2.167,4.243c-1.564-0.736-3.063-2.043-4.158-2.159
					c5.142,2.909,13.654,10.445,16.563,8.912c4.997,5.394-4.893-0.333,3.389,5.271l-1.612-0.099
					c6.603,7.64,14.393,10.623,22.135,13.785c3.901,1.557,7.803,3.181,11.738,5.347c1.953,1.108,3.937,2.315,5.917,3.753
					c1.975,1.448,3.971,3.085,6,4.971c-1.143-1.014-1.716-1.515-1.765-2.032c10.095,7.149,21.622,12.62,33.082,17.938
					c11.481,5.307,22.931,10.463,33.572,16.394c6.151,3.153,7.334,2.318,11.532,3.187l0.84,1.836l7.282,1.222
					c4.936,1.377,8.737,3.717,12.977,5.922c2.123,1.092,4.344,2.173,6.841,3.131c2.505,0.935,5.267,1.796,8.462,2.447l-1.343-1.168
					c4.332,1.642,13.988,4.414,13.04,4.78c0.487,0.043,1.636-0.079,3.262,0.749l-0.002,0.438l11.049,2.792
					c4.17,1.412,3.752,1.591,3.818,1.912c0.067,0.318,0.627,0.767,6.852,2.42c2.34,0.525,5.683,1.229,8.23,1.711
					c2.544,0.492,4.274,0.834,3.423,0.55c-1.862-0.501-4.722-1.392-4.802-1.633l4.224,1.11c0.448-0.125,1.505-0.048,1.181-0.374
					c-0.322-0.328-2.015-1.097-6.977-3.151c0,0-1.781-0.539-3.563-1.077c-1.786-0.524-3.573-1.049-3.573-1.049l-2.13-1.217
					l5.884,2.168c-3.229-1.584-5.427-2.093-7.872-2.73c-0.487-0.436-1.41-0.975-2.758-1.604c0,0-1.781-0.429-3.563-0.856
					c-1.791-0.403-3.582-0.806-3.582-0.806c-0.681-0.75,3.329,0.375-1.153-1.665c-3.351-0.771,2.734,2.155-2.666,0.436
					c-3.146-1.807-2.015-1.884-6.065-2.953c-0.43-0.544,0.466-0.424,2.046,0.066c-1.788-0.516-4.083-1.397-6.183-2.156
					c-2.093-0.776-3.995-1.424-5.023-1.405c-3.128-2.227-11.676-4.593-10.75-5.98c-1.208-0.104-6.475-1.383-9.634-2.673
					c6.49,0.541-11.618-5.303-9.133-6.979c-2.483-0.016-6.351-1.542-10.543-3.424c-4.201-1.867-8.721-4.092-12.653-5.285
					c0.49,0.022,1.457,0.062,2.048,0.496c-4.02-2.232-4.898-3.501-7.294-5.311c-1.421,1.648-7.999-1.134-12.035-1.658
					c-4.033-4.536,4.192-0.803,3.524-3.465c-0.545,1.77-9.386-2.966-8.403-0.673c-3.167-3.254-2.965-2.34-4-5.156
					c-2.012,2.272-3.718-1.477-7.676-1.58c-4.686-4.396-0.04-3.313-6.362-5.903C458.801,654.379,464.511,656.488,464.511,656.488z
					 M340.542,558.286c0.02-0.013,0.034-0.022,0.042-0.027c0.747,1.13,1.434,2.063,1.885,2.651
					C342.057,560.368,341.477,559.626,340.542,558.286z M333.885,546.893c0.607,1.488,1.622,3.219,2.673,5.055
					c-0.51,0.834-1.521,0.842-2.148-0.352c0.43,0.176,0.362-0.481,0.148-1.437c-0.115-0.473-0.25-1.029-0.387-1.593
					C334.057,547.994,333.948,547.414,333.885,546.893z M335.577,580.73c-1.66-1.62-1.742-2.522-1.529-3.07
					c0.687,0.835,1.51,1.797,2.647,3.01c0.113-0.005,0.281,0.038,0.404,0.025C336.594,580.813,336.094,580.886,335.577,580.73z"/>
				<path style="fill:#202020;" d="M340.648,581.945c0.247,0.218,0.439,0.295,0.723,0.61c-0.122-0.491-0.257-0.944-0.419-1.382
					c-0.374-0.053-0.75-0.111-1.099-0.147C340.122,581.337,340.4,581.658,340.648,581.945z"/>
				<path style="fill:#202020;" d="M634.39,331.84l0.021-0.295c-0.067,0.252-0.138,0.485-0.276,0.648
					C634.23,331.986,634.307,331.977,634.39,331.84z"/>
				<path style="fill:#202020;" d="M373.38,383.792l-0.371-0.318c0,0-0.116,0.292-0.232,0.583c-0.109,0.296-0.218,0.593-0.218,0.593
					s0.203-0.217,0.405-0.434C373.171,384.003,373.38,383.792,373.38,383.792z"/>
				<path style="fill:#202020;" d="M635.436,407.979c-0.163,0.162-0.316,0.463-0.407,1.039
					C635.156,408.961,635.291,408.517,635.436,407.979z"/>
				<path style="fill:#202020;" d="M638.502,440.503l-0.183,4.649C638.484,443.134,638.515,441.671,638.502,440.503z"/>
				<path style="fill:#202020;" d="M640.028,465.559c0.318,0.296,0.542,0.372,0.75,0.44c0.003-0.02,0.001-0.034,0.006-0.049
					L640.028,465.559z"/>
				<path style="fill:#202020;" d="M770.415,163.043c0.343,0.009,0.682-0.008,0.989-0.063
					C773.747,162.569,772.165,162.683,770.415,163.043z"/>
				<path style="fill:#202020;" d="M652.449,190.903c0.713-1.24,1.407-2.523,2.353-3.626
					C652.849,188.465,651.441,189.574,652.449,190.903z"/>
				<path style="fill:#202020;" d="M904.146,190.508c-0.021,0.008-0.009,0.021-0.033,0.036c0.292,0.122,0.542,0.247,0.829,0.378
					L904.146,190.508z"/>
				<path style="fill:#202020;" d="M659.727,183.963c-1.135,0.326-2.052,0.847-2.851,1.422c-0.801,0.574-1.476,1.216-2.074,1.891
					c0.82-0.458,1.721-0.939,2.575-1.486C658.228,185.235,659.041,184.629,659.727,183.963z"/>
				<path style="fill:#202020;" d="M641.281,573.676l-0.22,1.168c0.045-0.01,0.066,0.067,0.075,0.161L641.281,573.676z"/>
				<path style="fill:#202020;" d="M641.137,575.005l-0.167,1.315C641.08,575.724,641.172,575.206,641.137,575.005z"/>
				<path style="fill:#202020;" d="M640.541,579.073c0,0,0.128-0.683,0.227-1.374c0.101-0.689,0.202-1.379,0.202-1.379
					C640.779,577.262,640.529,578.422,640.541,579.073z"/>
				<path style="fill:#202020;" d="M643.903,540.863l-0.361-0.391C643.617,540.682,643.732,540.819,643.903,540.863z"/>
				<path style="fill:#202020;" d="M643.748,530.801c-0.068,2.4-0.733,6.004-0.497,9.351l0.291,0.321
					C642.987,538.89,644.434,533.095,643.748,530.801z"/>
				<path style="fill:#202020;" d="M648.343,488.469l-0.147,8.518c0.494-1.506,1.194-3.496,1.403,0.37
					C650.993,486.553,648.461,499.619,648.343,488.469z"/>
				<path style="fill:#202020;" d="M648.027,462.063c0.54,4.544,0.929-0.119,1.311,0.096
					C648.612,459.301,648.41,458.614,648.027,462.063z"/>
				<path style="fill:#202020;" d="M629.909,273.406l2.45,0.449C632.109,270.508,631.405,273.813,629.909,273.406z"/>
				<path style="fill:#202020;" d="M621.636,235.608c0,0-0.165,0.191-0.384,0.484c-0.224,0.294-0.523,0.686-0.821,1.078
					c-0.598,0.794-1.196,1.588-1.196,1.588l1.886,2.22c0,0,0.125-1.339,0.25-2.678c0.063-0.673,0.127-1.346,0.174-1.851
					C621.587,235.944,621.636,235.608,621.636,235.608z"/>
				<path style="fill:#202020;" d="M646.446,223.102c0,0-0.099,0.318-0.156,0.663c-0.066,0.338-0.134,0.675-0.134,0.675
					s0.091-0.308,0.227-0.771c0.147-0.455,0.373-1.044,0.586-1.646c0.433-1.208,0.864-2.417,0.864-2.417L646.446,223.102z"/>
				<path style="fill:#202020;" d="M906.245,223.521c0,0,0.793,0.278,1.623,0.511c0.818,0.232,1.671,0.417,1.671,0.417
					c0.139-0.635-0.787-1.257-1.664-1.457C906.977,222.796,906.224,222.822,906.245,223.521z"/>
				<path style="fill:#202020;" d="M781.077,238.417c-1.561-1.022-5.381-1.5-7.699-0.325
					C776.438,238.075,779.518,238.776,781.077,238.417z"/>
				<path style="fill:#202020;" d="M388.455,346.965c0,0,0.446-0.565,0.892-1.131c0.458-0.553,0.916-1.105,0.916-1.105
					s-0.979,0.908-1.917,1.862c-0.946,0.944-1.892,1.889-1.892,1.889L388.455,346.965z"/>
			</g>
		</g>
	</g>
</g>
</svg>
